<?xml version="1.0" encoding="UTF-8"?>
<svg id="Layer_1" data-name="Layer 1" xmlns="http://www.w3.org/2000/svg" xmlns:xlink="http://www.w3.org/1999/xlink" viewBox="0 0 198 342">
  <defs>
    <style>
      .cls-1 {
        fill: #3c3b48;
      }

      .cls-2 {
        fill: #d4d1cc;
      }

      .cls-3 {
        clip-path: url(#clippath);
      }

      .cls-4 {
        fill: none;
      }
    </style>
    <clipPath id="clippath">
      <rect class="cls-4" x="-28.11" y="-20.38" width="269.61" height="408.87"/>
    </clipPath>
  </defs>
  <rect class="cls-1" x="0" width="198" height="342"/>
  <g class="cls-3">
    <g>
      <g id="_Grid_Repeat_" data-name="&amp;lt;Grid Repeat&amp;gt;">
        <g>
          <path class="cls-2" d="m1.98-6.46c3.67-.92,6.98-.14,9.95,2.16.97.75,1.79,1.67,2.66,2.53,1.16,1.15,2.22,2.39,3.26,3.65,1.22,1.47,2.52,2.87,4.07,3.99.88.63,1.8,1.2,2.7,1.79.3.2.61.4.94.57,1.45.73,3,1.12,4.59,1.39.37.06.6.22.6.63.02,1.88-.28,3.7-1.17,5.38-.32.6-.68,1.18-1.31,1.54.62,1.61-.04,2.85-1.12,3.97-.22.23-.45.44-.69.64-1.3,1.01-2.61,1.99-4.06,2.79-1.38.76-2.78,1.38-4.45.84.27.56.28,1.09.13,1.62-.17.58-.52,1.05-.96,1.45-.91.82-1.93,1.45-3.06,1.94-1.9.82-3.89,1.26-5.94,1.5-.76.09-1.52.03-2.07-.58-.32-.35-.7-.39-1.1-.46-1.45-.23-2.87-.57-4.17-1.29-.62-.35-.7-.51-.5-1.2.3-1.03.53-2.08.62-3.15.33-4.23-.88-8.06-3.08-11.61-.52-.84-1-1.7-1.44-2.59-.68-1.39-1.22-2.84-1.33-4.4-.3-3.88.62-7.4,3.12-10.45.45-.55.94-1.05,1.55-1.47.72-.47,1.4-.97,2.23-1.18Zm15.62,32.02c-.48-.99-.99-1.96-1.65-2.84-.2-.27-.45-.51-.57-.89.24.07.37.23.51.37.8.79,1.42,1.74,2.22,2.54.28.28.57.41.96.42.72,0,1.4-.19,2.04-.49,2.01-.97,3.82-2.25,5.51-3.69.44-.37.8-.82,1.08-1.33.58-1.05.46-2.19-.33-3.09-.54-.61-1.18-1.11-1.8-1.63-.3-.25-.61-.49-.81-.85,1.29.74,2.47,1.6,3.42,2.8.41-.37.69-.82.94-1.29.84-1.61,1.21-3.32,1.21-5.13,0-.27-.11-.36-.36-.4-2.47-.37-4.64-1.41-6.77-2.72-2.38-1.47-4.29-3.37-6.07-5.48-.81-.97-1.64-1.94-2.53-2.83-.92-.92-1.77-1.92-2.79-2.74-2.85-2.3-6.06-3.15-9.64-2.29-1.31.31-2.39,1.08-3.26,2.07C-3.93-.72-4.95,3.08-4.35,7.31c.26,1.82,1.05,3.48,2,5.03,1.67,2.74,3.08,5.57,3.59,8.77.39,2.47.32,4.92-.44,7.32-.17.53-.16.53.34.81,1.18.66,2.49.93,3.78,1.23.19.04.38.08.62.14-.34-1.3-.52-2.57-.25-3.91.27.14.2.32.2.46.01.86.07,1.72.26,2.57.08.34.2.65.38.96.39.64.94.87,1.65.82,2.15-.17,4.22-.66,6.21-1.52.92-.4,1.76-.91,2.54-1.52.35-.28.67-.59.91-.96.41-.66.47-1.29.15-1.95Z"/>
          <path class="cls-2" d="m7.78,11.25c.62-.18.97-.59,1.2-1.14.39-.94.37-1.91.21-2.89-.25-1.47-.79-2.81-1.86-3.89-.37-.38-.8-.68-1.34-.75-.84-.12-1.48.23-1.85,1-.44.92-.44,1.9-.3,2.88.21,1.38.7,2.65,1.61,3.72.59.69,1.31,1.2,2.33,1.07Z"/>
          <path class="cls-2" d="m-1.15,11.83c.36.42.74.77,1.24.98.84.34,1.6.07,2.01-.74.23-.45.33-.94.34-1.44.02-1.76-.51-3.34-1.64-4.71-.33-.4-.72-.71-1.19-.94-.88-.42-1.89.12-2.2.9-.44,1.07-.33,2.16-.03,3.23.28,1,.82,1.88,1.46,2.72Z"/>
        </g>
      </g>
      <g id="_Grid_Repeat_-2" data-name="&amp;lt;Grid Repeat&amp;gt;">
        <g>
          <path class="cls-2" d="m47.62,26.91c3.67-.92,6.98-.14,9.95,2.16.97.75,1.79,1.67,2.66,2.53,1.16,1.15,2.22,2.39,3.26,3.65,1.22,1.47,2.52,2.87,4.07,3.99.88.63,1.8,1.2,2.7,1.79.3.2.61.4.94.57,1.45.73,3,1.12,4.59,1.39.37.06.6.22.6.63.02,1.88-.28,3.7-1.17,5.38-.32.6-.68,1.18-1.31,1.54.62,1.61-.04,2.85-1.12,3.97-.22.23-.45.44-.69.64-1.3,1.01-2.61,1.99-4.06,2.79-1.38.76-2.78,1.38-4.45.84.27.56.28,1.09.13,1.62-.17.58-.52,1.05-.96,1.45-.91.82-1.93,1.45-3.06,1.94-1.9.82-3.89,1.26-5.94,1.5-.76.09-1.52.03-2.07-.58-.32-.35-.7-.39-1.1-.46-1.45-.23-2.87-.57-4.17-1.29-.62-.35-.7-.51-.5-1.2.3-1.03.53-2.08.62-3.15.33-4.23-.88-8.06-3.08-11.61-.52-.84-1-1.7-1.44-2.59-.68-1.39-1.22-2.84-1.33-4.4-.3-3.88.62-7.4,3.12-10.45.45-.55.94-1.05,1.55-1.47.72-.47,1.4-.97,2.23-1.18Zm15.62,32.02c-.48-.99-.99-1.96-1.65-2.84-.2-.27-.45-.51-.57-.89.24.07.37.23.51.37.8.79,1.42,1.74,2.22,2.54.28.28.57.41.96.42.72,0,1.4-.19,2.04-.49,2.01-.97,3.82-2.25,5.51-3.69.44-.37.8-.82,1.08-1.33.58-1.05.46-2.19-.33-3.09-.54-.61-1.18-1.11-1.8-1.63-.3-.25-.61-.49-.81-.85,1.29.74,2.47,1.6,3.42,2.8.41-.37.69-.82.94-1.29.84-1.61,1.21-3.32,1.21-5.13,0-.27-.11-.36-.36-.4-2.47-.37-4.64-1.41-6.77-2.72-2.38-1.47-4.29-3.37-6.07-5.48-.81-.97-1.64-1.94-2.53-2.83-.92-.92-1.77-1.92-2.79-2.74-2.85-2.3-6.06-3.15-9.64-2.29-1.31.31-2.39,1.08-3.26,2.07-2.85,3.23-3.87,7.03-3.26,11.27.26,1.82,1.05,3.48,2,5.03,1.67,2.74,3.08,5.57,3.59,8.77.39,2.47.32,4.92-.44,7.32-.17.53-.16.53.34.81,1.18.66,2.49.93,3.78,1.23.19.04.38.08.62.14-.34-1.3-.52-2.57-.25-3.91.27.14.2.32.2.46.01.86.07,1.72.26,2.57.08.34.2.65.38.96.39.64.94.87,1.65.82,2.15-.17,4.22-.66,6.21-1.52.92-.4,1.76-.91,2.54-1.52.35-.28.67-.59.91-.96.41-.66.47-1.29.15-1.95Z"/>
          <path class="cls-2" d="m53.42,44.62c.62-.18.97-.59,1.2-1.14.39-.94.37-1.91.21-2.89-.25-1.47-.79-2.81-1.86-3.89-.37-.38-.8-.68-1.34-.75-.84-.12-1.48.23-1.85,1-.44.92-.44,1.9-.3,2.88.21,1.38.7,2.65,1.61,3.72.59.69,1.31,1.2,2.33,1.07Z"/>
          <path class="cls-2" d="m44.49,45.2c.36.42.74.77,1.24.98.84.34,1.6.07,2.01-.74.23-.45.33-.94.34-1.44.02-1.76-.51-3.34-1.64-4.71-.33-.4-.72-.71-1.19-.94-.88-.42-1.89.12-2.2.9-.44,1.07-.33,2.16-.03,3.23.28,1,.82,1.88,1.46,2.72Z"/>
        </g>
      </g>
      <g id="_Grid_Repeat_-3" data-name="&amp;lt;Grid Repeat&amp;gt;">
        <g>
          <path class="cls-2" d="m93.26-6.46c3.67-.92,6.98-.14,9.95,2.16.97.75,1.79,1.67,2.66,2.53,1.16,1.15,2.22,2.39,3.26,3.65,1.22,1.47,2.52,2.87,4.07,3.99.88.63,1.8,1.2,2.7,1.79.3.2.61.4.94.57,1.45.73,3,1.12,4.59,1.39.37.06.6.22.6.63.02,1.88-.28,3.7-1.17,5.38-.32.6-.68,1.18-1.31,1.54.62,1.61-.04,2.85-1.12,3.97-.22.23-.45.44-.69.64-1.3,1.01-2.61,1.99-4.06,2.79-1.38.76-2.78,1.38-4.45.84.27.56.28,1.09.13,1.62-.17.58-.52,1.05-.96,1.45-.91.82-1.93,1.45-3.06,1.94-1.9.82-3.89,1.26-5.94,1.5-.76.09-1.52.03-2.07-.58-.32-.35-.7-.39-1.1-.46-1.45-.23-2.87-.57-4.17-1.29-.62-.35-.7-.51-.5-1.2.3-1.03.53-2.08.62-3.15.33-4.23-.88-8.06-3.08-11.61-.52-.84-1-1.7-1.44-2.59-.68-1.39-1.22-2.84-1.33-4.4-.3-3.88.62-7.4,3.12-10.45.45-.55.94-1.05,1.55-1.47.72-.47,1.4-.97,2.23-1.18Zm15.62,32.02c-.48-.99-.99-1.96-1.65-2.84-.2-.27-.45-.51-.57-.89.24.07.37.23.51.37.8.79,1.42,1.74,2.22,2.54.28.28.57.41.96.42.72,0,1.4-.19,2.04-.49,2.01-.97,3.82-2.25,5.51-3.69.44-.37.8-.82,1.08-1.33.58-1.05.46-2.19-.33-3.09-.54-.61-1.18-1.11-1.8-1.63-.3-.25-.61-.49-.81-.85,1.29.74,2.47,1.6,3.42,2.8.41-.37.69-.82.94-1.29.84-1.61,1.21-3.32,1.21-5.13,0-.27-.11-.36-.36-.4-2.47-.37-4.64-1.41-6.77-2.72-2.38-1.47-4.29-3.37-6.07-5.48-.81-.97-1.64-1.94-2.53-2.83-.92-.92-1.77-1.92-2.79-2.74-2.85-2.3-6.06-3.15-9.64-2.29-1.31.31-2.39,1.08-3.26,2.07-2.85,3.23-3.87,7.03-3.26,11.27.26,1.82,1.05,3.48,2,5.03,1.67,2.74,3.08,5.57,3.59,8.77.39,2.47.32,4.92-.44,7.32-.17.53-.16.53.34.81,1.18.66,2.49.93,3.78,1.23.19.04.38.08.62.14-.34-1.3-.52-2.57-.25-3.91.27.14.2.32.2.46.01.86.07,1.72.26,2.57.08.34.2.65.38.96.39.64.94.87,1.65.82,2.15-.17,4.22-.66,6.21-1.52.92-.4,1.76-.91,2.54-1.52.35-.28.67-.59.91-.96.41-.66.47-1.29.15-1.95Z"/>
          <path class="cls-2" d="m99.06,11.25c.62-.18.97-.59,1.2-1.14.39-.94.37-1.91.21-2.89-.25-1.47-.79-2.81-1.86-3.89-.37-.38-.8-.68-1.34-.75-.84-.12-1.48.23-1.85,1-.44.92-.44,1.9-.3,2.88.21,1.38.7,2.65,1.61,3.72.59.69,1.31,1.2,2.33,1.07Z"/>
          <path class="cls-2" d="m90.13,11.83c.36.42.74.77,1.24.98.84.34,1.6.07,2.01-.74.23-.45.33-.94.34-1.44.02-1.76-.51-3.34-1.64-4.71-.33-.4-.72-.71-1.19-.94-.88-.42-1.89.12-2.2.9-.44,1.07-.33,2.16-.03,3.23.28,1,.82,1.88,1.46,2.72Z"/>
        </g>
      </g>
      <g id="_Grid_Repeat_-4" data-name="&amp;lt;Grid Repeat&amp;gt;">
        <g>
          <path class="cls-2" d="m138.89,26.91c3.67-.92,6.98-.14,9.95,2.16.97.75,1.79,1.67,2.66,2.53,1.16,1.15,2.22,2.39,3.26,3.65,1.22,1.47,2.52,2.87,4.07,3.99.88.63,1.8,1.2,2.7,1.79.3.2.61.4.94.57,1.45.73,3,1.12,4.59,1.39.37.06.6.22.6.63.02,1.88-.28,3.7-1.17,5.38-.32.6-.68,1.18-1.31,1.54.62,1.61-.04,2.85-1.12,3.97-.22.23-.45.44-.69.64-1.3,1.01-2.61,1.99-4.06,2.79-1.38.76-2.78,1.38-4.45.84.27.56.28,1.09.13,1.62-.17.58-.52,1.05-.96,1.45-.91.82-1.93,1.45-3.06,1.94-1.9.82-3.89,1.26-5.94,1.5-.76.09-1.52.03-2.07-.58-.32-.35-.7-.39-1.1-.46-1.45-.23-2.87-.57-4.17-1.29-.62-.35-.7-.51-.5-1.2.3-1.03.53-2.08.62-3.15.33-4.23-.88-8.06-3.08-11.61-.52-.84-1-1.7-1.44-2.59-.68-1.39-1.22-2.84-1.33-4.4-.3-3.88.62-7.4,3.12-10.45.45-.55.94-1.05,1.55-1.47.72-.47,1.4-.97,2.23-1.18Zm15.62,32.02c-.48-.99-.99-1.96-1.65-2.84-.2-.27-.45-.51-.57-.89.24.07.37.23.51.37.8.79,1.42,1.74,2.22,2.54.28.28.57.41.96.42.72,0,1.4-.19,2.04-.49,2.01-.97,3.82-2.25,5.51-3.69.44-.37.8-.82,1.08-1.33.58-1.05.46-2.19-.33-3.09-.54-.61-1.18-1.11-1.8-1.63-.3-.25-.61-.49-.81-.85,1.29.74,2.47,1.6,3.42,2.8.41-.37.69-.82.94-1.29.84-1.61,1.21-3.32,1.21-5.13,0-.27-.11-.36-.36-.4-2.47-.37-4.64-1.41-6.77-2.72-2.38-1.47-4.29-3.37-6.07-5.48-.81-.97-1.64-1.94-2.53-2.83-.92-.92-1.77-1.92-2.79-2.74-2.85-2.3-6.06-3.15-9.64-2.29-1.31.31-2.39,1.08-3.26,2.07-2.85,3.23-3.87,7.03-3.26,11.27.26,1.82,1.05,3.48,2,5.03,1.67,2.74,3.08,5.57,3.59,8.77.39,2.47.32,4.92-.44,7.32-.17.53-.16.53.34.81,1.18.66,2.49.93,3.78,1.23.19.04.38.08.62.14-.34-1.3-.52-2.57-.25-3.91.27.14.2.32.2.46.01.86.07,1.72.26,2.57.08.34.2.65.38.96.39.64.94.87,1.65.82,2.15-.17,4.22-.66,6.21-1.52.92-.4,1.76-.91,2.54-1.52.35-.28.67-.59.91-.96.41-.66.47-1.29.15-1.95Z"/>
          <path class="cls-2" d="m144.69,44.62c.62-.18.97-.59,1.2-1.14.39-.94.37-1.91.21-2.89-.25-1.47-.79-2.81-1.86-3.89-.37-.38-.8-.68-1.34-.75-.84-.12-1.48.23-1.85,1-.44.92-.44,1.9-.3,2.88.21,1.38.7,2.65,1.61,3.72.59.69,1.31,1.2,2.33,1.07Z"/>
          <path class="cls-2" d="m135.76,45.2c.36.42.74.77,1.24.98.84.34,1.6.07,2.01-.74.23-.45.33-.94.34-1.44.02-1.76-.51-3.34-1.64-4.71-.33-.4-.72-.71-1.19-.94-.88-.42-1.89.12-2.2.9-.44,1.07-.33,2.16-.03,3.23.28,1,.82,1.88,1.46,2.72Z"/>
        </g>
      </g>
      <g id="_Grid_Repeat_-5" data-name="&amp;lt;Grid Repeat&amp;gt;">
        <g>
          <path class="cls-2" d="m184.53-6.46c3.67-.92,6.98-.14,9.95,2.16.97.75,1.79,1.67,2.66,2.53,1.16,1.15,2.22,2.39,3.26,3.65,1.22,1.47,2.52,2.87,4.07,3.99.88.63,1.8,1.2,2.7,1.79.3.2.61.4.94.57,1.45.73,3,1.12,4.59,1.39.37.06.6.22.6.63.02,1.88-.28,3.7-1.17,5.38-.32.6-.68,1.18-1.31,1.54.62,1.61-.04,2.85-1.12,3.97-.22.23-.45.44-.69.64-1.3,1.01-2.61,1.99-4.06,2.79-1.38.76-2.78,1.38-4.45.84.27.56.28,1.09.13,1.62-.17.58-.52,1.05-.96,1.45-.91.82-1.93,1.45-3.06,1.94-1.9.82-3.89,1.26-5.94,1.5-.76.09-1.52.03-2.07-.58-.32-.35-.7-.39-1.1-.46-1.45-.23-2.87-.57-4.17-1.29-.62-.35-.7-.51-.5-1.2.3-1.03.53-2.08.62-3.15.33-4.23-.88-8.06-3.08-11.61-.52-.84-1-1.7-1.44-2.59-.68-1.39-1.22-2.84-1.33-4.4-.3-3.88.62-7.4,3.12-10.45.45-.55.94-1.05,1.55-1.47.72-.47,1.4-.97,2.23-1.18Zm15.62,32.02c-.48-.99-.99-1.96-1.65-2.84-.2-.27-.45-.51-.57-.89.24.07.37.23.51.37.8.79,1.42,1.74,2.22,2.54.28.28.57.41.96.42.72,0,1.4-.19,2.04-.49,2.01-.97,3.82-2.25,5.51-3.69.44-.37.8-.82,1.08-1.33.58-1.05.46-2.19-.33-3.09-.54-.61-1.18-1.11-1.8-1.63-.3-.25-.61-.49-.81-.85,1.29.74,2.47,1.6,3.42,2.8.41-.37.69-.82.94-1.29.84-1.61,1.21-3.32,1.21-5.13,0-.27-.11-.36-.36-.4-2.47-.37-4.64-1.41-6.77-2.72-2.38-1.47-4.29-3.37-6.07-5.48-.81-.97-1.64-1.94-2.53-2.83-.92-.92-1.77-1.92-2.79-2.74-2.85-2.3-6.06-3.15-9.64-2.29-1.31.31-2.39,1.08-3.26,2.07-2.85,3.23-3.87,7.03-3.26,11.27.26,1.82,1.05,3.48,2,5.03,1.67,2.74,3.08,5.57,3.59,8.77.39,2.47.32,4.92-.44,7.32-.17.53-.16.53.34.81,1.18.66,2.49.93,3.78,1.23.19.04.38.08.62.14-.34-1.3-.52-2.57-.25-3.91.27.14.2.32.2.46.01.86.07,1.72.26,2.57.08.34.2.65.38.96.39.64.94.87,1.65.82,2.15-.17,4.22-.66,6.21-1.52.92-.4,1.76-.91,2.54-1.52.35-.28.67-.59.91-.96.41-.66.47-1.29.15-1.95Z"/>
          <path class="cls-2" d="m190.33,11.25c.62-.18.97-.59,1.2-1.14.39-.94.37-1.91.21-2.89-.25-1.47-.79-2.81-1.86-3.89-.37-.38-.8-.68-1.34-.75-.84-.12-1.48.23-1.85,1-.44.92-.44,1.9-.3,2.88.21,1.38.7,2.65,1.61,3.72.59.69,1.31,1.2,2.33,1.07Z"/>
          <path class="cls-2" d="m181.4,11.83c.36.42.74.77,1.24.98.84.34,1.6.07,2.01-.74.23-.45.33-.94.34-1.44.02-1.76-.51-3.34-1.64-4.71-.33-.4-.72-.71-1.19-.94-.88-.42-1.89.12-2.2.9-.44,1.07-.33,2.16-.03,3.23.28,1,.82,1.88,1.46,2.72Z"/>
        </g>
      </g>
      <g id="_Grid_Repeat_-6" data-name="&amp;lt;Grid Repeat&amp;gt;">
        <g>
          <path class="cls-2" d="m23.81,60.28c-3.67-.92-6.98-.14-9.95,2.16-.97.75-1.79,1.67-2.66,2.53-1.16,1.15-2.22,2.39-3.26,3.65-1.22,1.47-2.52,2.87-4.07,3.99-.88.63-1.8,1.2-2.7,1.79-.3.2-.61.4-.94.57-1.45.73-3,1.12-4.59,1.39-.37.06-.6.22-.6.63-.02,1.88.28,3.7,1.17,5.38.32.6.68,1.18,1.31,1.54-.62,1.61.04,2.85,1.12,3.97.22.23.45.44.69.64,1.3,1.01,2.61,1.99,4.06,2.79,1.38.76,2.78,1.38,4.45.84-.27.56-.28,1.09-.13,1.62.17.58.52,1.05.96,1.45.91.82,1.93,1.45,3.06,1.94,1.9.82,3.89,1.26,5.94,1.5.76.09,1.52.03,2.07-.58.32-.35.7-.39,1.1-.46,1.45-.23,2.87-.57,4.17-1.29.62-.35.7-.51.5-1.2-.3-1.03-.53-2.08-.62-3.15-.33-4.23.88-8.06,3.08-11.61.52-.84,1-1.7,1.44-2.59.68-1.39,1.22-2.84,1.33-4.4.3-3.88-.62-7.4-3.12-10.45-.45-.55-.94-1.05-1.55-1.47-.72-.47-1.4-.97-2.23-1.18Zm-15.62,32.02c.48-.99.99-1.96,1.65-2.84.2-.27.45-.51.57-.89-.24.07-.37.23-.51.37-.8.79-1.42,1.74-2.22,2.54-.28.28-.57.41-.96.42-.72,0-1.4-.19-2.04-.49-2.01-.97-3.82-2.25-5.51-3.69-.44-.37-.8-.82-1.08-1.33-.58-1.05-.46-2.19.33-3.09.54-.61,1.18-1.11,1.8-1.63.3-.25.61-.49.81-.85-1.29.74-2.47,1.6-3.42,2.8-.41-.37-.69-.82-.94-1.29-.84-1.61-1.21-3.32-1.21-5.13,0-.27.11-.36.36-.4,2.47-.37,4.64-1.41,6.77-2.72,2.38-1.47,4.29-3.37,6.07-5.48.81-.97,1.64-1.94,2.53-2.83.92-.92,1.77-1.92,2.79-2.74,2.85-2.3,6.06-3.15,9.64-2.29,1.31.31,2.39,1.08,3.26,2.07,2.85,3.23,3.87,7.03,3.26,11.27-.26,1.82-1.05,3.48-2,5.03-1.67,2.74-3.08,5.57-3.59,8.77-.39,2.47-.32,4.92.44,7.32.17.53.16.53-.34.81-1.18.66-2.49.93-3.78,1.23-.19.04-.38.08-.62.14.34-1.3.52-2.57.25-3.91-.27.14-.2.32-.2.46-.01.86-.07,1.72-.26,2.57-.08.34-.2.65-.38.96-.39.64-.94.87-1.65.82-2.15-.17-4.22-.66-6.21-1.52-.92-.4-1.76-.91-2.54-1.52-.35-.28-.67-.59-.91-.96-.41-.66-.47-1.29-.15-1.95Z"/>
          <path class="cls-2" d="m18.01,77.99c-.62-.18-.97-.59-1.2-1.14-.39-.94-.37-1.91-.21-2.89.25-1.47.79-2.81,1.86-3.89.37-.38.8-.68,1.34-.75.84-.12,1.48.23,1.85,1,.44.92.44,1.9.3,2.88-.21,1.38-.7,2.65-1.61,3.72-.59.69-1.31,1.2-2.33,1.07Z"/>
          <path class="cls-2" d="m26.94,78.57c-.36.42-.74.77-1.24.98-.84.34-1.6.07-2.01-.74-.23-.45-.33-.94-.34-1.44-.02-1.76.51-3.34,1.64-4.71.33-.4.72-.71,1.19-.94.88-.42,1.89.12,2.2.9.44,1.07.33,2.16.03,3.23-.28,1-.82,1.88-1.46,2.72Z"/>
        </g>
      </g>
      <g id="_Grid_Repeat_-7" data-name="&amp;lt;Grid Repeat&amp;gt;">
        <g>
          <path class="cls-2" d="m69.45,93.66c-3.67-.92-6.98-.14-9.95,2.16-.97.75-1.79,1.67-2.66,2.53-1.16,1.15-2.22,2.39-3.26,3.65-1.22,1.47-2.52,2.87-4.07,3.99-.88.63-1.8,1.2-2.7,1.79-.3.2-.61.4-.94.57-1.45.73-3,1.12-4.59,1.39-.37.06-.6.22-.6.63-.02,1.88.28,3.7,1.17,5.38.32.6.68,1.18,1.31,1.54-.62,1.61.04,2.85,1.12,3.97.22.23.45.44.69.64,1.3,1.01,2.61,1.99,4.06,2.79,1.38.76,2.78,1.38,4.45.84-.27.56-.28,1.09-.13,1.62.17.58.52,1.05.96,1.45.91.82,1.93,1.45,3.06,1.94,1.9.82,3.89,1.26,5.94,1.5.76.09,1.52.03,2.07-.58.32-.35.7-.39,1.1-.46,1.45-.23,2.87-.57,4.17-1.29.62-.35.7-.51.5-1.2-.3-1.03-.53-2.08-.62-3.15-.33-4.23.88-8.06,3.08-11.61.52-.84,1-1.7,1.44-2.59.68-1.39,1.22-2.84,1.33-4.4.3-3.88-.62-7.4-3.12-10.45-.45-.55-.94-1.05-1.55-1.47-.72-.47-1.4-.97-2.23-1.18Zm-15.62,32.02c.48-.99.99-1.96,1.65-2.84.2-.27.45-.51.57-.89-.24.07-.37.23-.51.37-.8.79-1.42,1.74-2.22,2.54-.28.28-.57.41-.96.42-.72,0-1.4-.19-2.04-.49-2.01-.97-3.82-2.25-5.51-3.69-.44-.37-.8-.82-1.08-1.33-.58-1.05-.46-2.19.33-3.09.54-.61,1.18-1.11,1.8-1.63.3-.25.61-.49.81-.85-1.29.74-2.47,1.6-3.42,2.8-.41-.37-.69-.82-.94-1.29-.84-1.61-1.21-3.32-1.21-5.13,0-.27.11-.36.36-.4,2.47-.37,4.64-1.41,6.77-2.72,2.38-1.47,4.29-3.37,6.07-5.48.81-.97,1.64-1.94,2.53-2.83.92-.92,1.77-1.92,2.79-2.74,2.85-2.3,6.06-3.15,9.64-2.29,1.31.31,2.39,1.08,3.26,2.07,2.85,3.23,3.87,7.03,3.26,11.27-.26,1.82-1.05,3.48-2,5.03-1.67,2.74-3.08,5.57-3.59,8.77-.39,2.47-.32,4.92.44,7.32.17.53.16.53-.34.81-1.18.66-2.49.93-3.78,1.23-.19.04-.38.08-.62.14.34-1.3.52-2.57.25-3.91-.27.14-.2.32-.2.46-.01.86-.07,1.72-.26,2.57-.08.34-.2.65-.38.96-.39.64-.94.87-1.65.82-2.15-.17-4.22-.66-6.21-1.52-.92-.4-1.76-.91-2.54-1.52-.35-.28-.67-.59-.91-.96-.41-.66-.47-1.29-.15-1.95Z"/>
          <path class="cls-2" d="m63.65,111.37c-.62-.18-.97-.59-1.2-1.14-.39-.94-.37-1.91-.21-2.89.25-1.47.79-2.81,1.86-3.89.37-.38.8-.68,1.34-.75.84-.12,1.48.23,1.85,1,.44.92.44,1.9.3,2.88-.21,1.38-.7,2.65-1.61,3.72-.59.69-1.31,1.2-2.33,1.07Z"/>
          <path class="cls-2" d="m72.58,111.95c-.36.42-.74.77-1.24.98-.84.34-1.6.07-2.01-.74-.23-.45-.33-.94-.34-1.44-.02-1.76.51-3.34,1.64-4.71.33-.4.72-.71,1.19-.94.88-.42,1.89.12,2.2.9.44,1.07.33,2.16.03,3.23-.28,1-.82,1.88-1.46,2.72Z"/>
        </g>
      </g>
      <g id="_Grid_Repeat_-8" data-name="&amp;lt;Grid Repeat&amp;gt;">
        <g>
          <path class="cls-2" d="m115.09,60.28c-3.67-.92-6.98-.14-9.95,2.16-.97.75-1.79,1.67-2.66,2.53-1.16,1.15-2.22,2.39-3.26,3.65-1.22,1.47-2.52,2.87-4.07,3.99-.88.63-1.8,1.2-2.7,1.79-.3.2-.61.4-.94.57-1.45.73-3,1.12-4.59,1.39-.37.06-.6.22-.6.63-.02,1.88.28,3.7,1.17,5.38.32.6.68,1.18,1.31,1.54-.62,1.61.04,2.85,1.12,3.97.22.23.45.44.69.64,1.3,1.01,2.61,1.99,4.06,2.79,1.38.76,2.78,1.38,4.45.84-.27.56-.28,1.09-.13,1.62.17.58.52,1.05.96,1.45.91.82,1.93,1.45,3.06,1.94,1.9.82,3.89,1.26,5.94,1.5.76.09,1.52.03,2.07-.58.32-.35.7-.39,1.1-.46,1.45-.23,2.87-.57,4.17-1.29.62-.35.7-.51.5-1.2-.3-1.03-.53-2.08-.62-3.15-.33-4.23.88-8.06,3.08-11.61.52-.84,1-1.7,1.44-2.59.68-1.39,1.22-2.84,1.33-4.4.3-3.88-.62-7.4-3.12-10.45-.45-.55-.94-1.05-1.55-1.47-.72-.47-1.4-.97-2.23-1.18Zm-15.62,32.02c.48-.99.99-1.96,1.65-2.84.2-.27.45-.51.57-.89-.24.07-.37.23-.51.37-.8.79-1.42,1.74-2.22,2.54-.28.28-.57.41-.96.42-.72,0-1.4-.19-2.04-.49-2.01-.97-3.82-2.25-5.51-3.69-.44-.37-.8-.82-1.08-1.33-.58-1.05-.46-2.19.33-3.09.54-.61,1.18-1.11,1.8-1.63.3-.25.61-.49.81-.85-1.29.74-2.47,1.6-3.42,2.8-.41-.37-.69-.82-.94-1.29-.84-1.61-1.21-3.32-1.21-5.13,0-.27.11-.36.36-.4,2.47-.37,4.64-1.41,6.77-2.72,2.38-1.47,4.29-3.37,6.07-5.48.81-.97,1.64-1.94,2.53-2.83.92-.92,1.77-1.92,2.79-2.74,2.85-2.3,6.06-3.15,9.64-2.29,1.31.31,2.39,1.08,3.26,2.07,2.85,3.23,3.87,7.03,3.26,11.27-.26,1.82-1.05,3.48-2,5.03-1.67,2.74-3.08,5.57-3.59,8.77-.39,2.47-.32,4.92.44,7.32.17.53.16.53-.34.81-1.18.66-2.49.93-3.78,1.23-.19.04-.38.08-.62.14.34-1.3.52-2.57.25-3.91-.27.14-.2.32-.2.46-.01.86-.07,1.72-.26,2.57-.08.34-.2.65-.38.96-.39.64-.94.87-1.65.82-2.15-.17-4.22-.66-6.21-1.52-.92-.4-1.76-.91-2.54-1.52-.35-.28-.67-.59-.91-.96-.41-.66-.47-1.29-.15-1.95Z"/>
          <path class="cls-2" d="m109.29,77.99c-.62-.18-.97-.59-1.2-1.14-.39-.94-.37-1.91-.21-2.89.25-1.47.79-2.81,1.86-3.89.37-.38.8-.68,1.34-.75.84-.12,1.48.23,1.85,1,.44.92.44,1.9.3,2.88-.21,1.38-.7,2.65-1.61,3.72-.59.69-1.31,1.2-2.33,1.07Z"/>
          <path class="cls-2" d="m118.22,78.57c-.36.42-.74.77-1.24.98-.84.34-1.6.07-2.01-.74-.23-.45-.33-.94-.34-1.44-.02-1.76.51-3.34,1.64-4.71.33-.4.72-.71,1.19-.94.88-.42,1.89.12,2.2.9.44,1.07.33,2.16.03,3.23-.28,1-.82,1.88-1.46,2.72Z"/>
        </g>
      </g>
      <g id="_Grid_Repeat_-9" data-name="&amp;lt;Grid Repeat&amp;gt;">
        <g>
          <path class="cls-2" d="m160.73,93.66c-3.67-.92-6.98-.14-9.95,2.16-.97.75-1.79,1.67-2.66,2.53-1.16,1.15-2.22,2.39-3.26,3.65-1.22,1.47-2.52,2.87-4.07,3.99-.88.63-1.8,1.2-2.7,1.79-.3.2-.61.4-.94.57-1.45.73-3,1.12-4.59,1.39-.37.06-.6.22-.6.63-.02,1.88.28,3.7,1.17,5.38.32.6.68,1.18,1.31,1.54-.62,1.61.04,2.85,1.12,3.97.22.23.45.44.69.64,1.3,1.01,2.61,1.99,4.06,2.79,1.38.76,2.78,1.38,4.45.84-.27.56-.28,1.09-.13,1.62.17.58.52,1.05.96,1.45.91.82,1.93,1.45,3.06,1.94,1.9.82,3.89,1.26,5.94,1.5.76.09,1.52.03,2.07-.58.32-.35.7-.39,1.1-.46,1.45-.23,2.87-.57,4.17-1.29.62-.35.7-.51.5-1.2-.3-1.03-.53-2.08-.62-3.15-.33-4.23.88-8.06,3.08-11.61.52-.84,1-1.7,1.44-2.59.68-1.39,1.22-2.84,1.33-4.4.3-3.88-.62-7.4-3.12-10.45-.45-.55-.94-1.05-1.55-1.47-.72-.47-1.4-.97-2.23-1.18Zm-15.62,32.02c.48-.99.99-1.96,1.65-2.84.2-.27.45-.51.57-.89-.24.07-.37.23-.51.37-.8.79-1.42,1.74-2.22,2.54-.28.28-.57.41-.96.42-.72,0-1.4-.19-2.04-.49-2.01-.97-3.82-2.25-5.51-3.69-.44-.37-.8-.82-1.08-1.33-.58-1.05-.46-2.19.33-3.09.54-.61,1.18-1.11,1.8-1.63.3-.25.61-.49.81-.85-1.29.74-2.47,1.6-3.42,2.8-.41-.37-.69-.82-.94-1.29-.84-1.61-1.21-3.32-1.21-5.13,0-.27.11-.36.36-.4,2.47-.37,4.64-1.41,6.77-2.72,2.38-1.47,4.29-3.37,6.07-5.48.81-.97,1.64-1.94,2.53-2.83.92-.92,1.77-1.92,2.79-2.74,2.85-2.3,6.06-3.15,9.64-2.29,1.31.31,2.39,1.08,3.26,2.07,2.85,3.23,3.87,7.03,3.26,11.27-.26,1.82-1.05,3.48-2,5.03-1.67,2.74-3.08,5.57-3.59,8.77-.39,2.47-.32,4.92.44,7.32.17.53.16.53-.34.81-1.18.66-2.49.93-3.78,1.23-.19.04-.38.08-.62.14.34-1.3.52-2.57.25-3.91-.27.14-.2.32-.2.46-.01.86-.07,1.72-.26,2.57-.08.34-.2.65-.38.96-.39.64-.94.87-1.65.82-2.15-.17-4.22-.66-6.21-1.52-.92-.4-1.76-.91-2.54-1.52-.35-.28-.67-.59-.91-.96-.41-.66-.47-1.29-.15-1.95Z"/>
          <path class="cls-2" d="m154.92,111.37c-.62-.18-.97-.59-1.2-1.14-.39-.94-.37-1.91-.21-2.89.25-1.47.79-2.81,1.86-3.89.37-.38.8-.68,1.34-.75.84-.12,1.48.23,1.85,1,.44.92.44,1.9.3,2.88-.21,1.38-.7,2.65-1.61,3.72-.59.69-1.31,1.2-2.33,1.07Z"/>
          <path class="cls-2" d="m163.85,111.95c-.36.42-.74.77-1.24.98-.84.34-1.6.07-2.01-.74-.23-.45-.33-.94-.34-1.44-.02-1.76.51-3.34,1.64-4.71.33-.4.72-.71,1.19-.94.88-.42,1.89.12,2.2.9.44,1.07.33,2.16.03,3.23-.28,1-.82,1.88-1.46,2.72Z"/>
        </g>
      </g>
      <g id="_Grid_Repeat_-10" data-name="&amp;lt;Grid Repeat&amp;gt;">
        <path class="cls-2" d="m206.36,60.28c-3.67-.92-6.98-.14-9.95,2.16-.97.75-1.79,1.67-2.66,2.53-1.16,1.15-2.22,2.39-3.26,3.65-1.22,1.47-2.52,2.87-4.07,3.99-.88.63-1.8,1.2-2.7,1.79-.3.2-.61.4-.94.57-1.45.73-3,1.12-4.59,1.39-.37.06-.6.22-.6.63-.02,1.88.28,3.7,1.17,5.38.32.6.68,1.18,1.31,1.54-.62,1.61.04,2.85,1.12,3.97.22.23.45.44.69.64,1.3,1.01,2.61,1.99,4.06,2.79,1.38.76,2.78,1.38,4.45.84-.27.56-.28,1.09-.13,1.62.17.58.52,1.05.96,1.45.91.82,1.93,1.45,3.06,1.94,1.9.82,3.89,1.26,5.94,1.5.76.09,1.52.03,2.07-.58.32-.35.7-.39,1.1-.46,1.45-.23,2.87-.57,4.17-1.29.62-.35.7-.51.5-1.2-.3-1.03-.53-2.08-.62-3.15-.33-4.23.88-8.06,3.08-11.61.52-.84,1-1.7,1.44-2.59.68-1.39,1.22-2.84,1.33-4.4.3-3.88-.62-7.4-3.12-10.45-.45-.55-.94-1.05-1.55-1.47-.72-.47-1.4-.97-2.23-1.18Zm-15.62,32.02c.48-.99.99-1.96,1.65-2.84.2-.27.45-.51.57-.89-.24.07-.37.23-.51.37-.8.79-1.42,1.74-2.22,2.54-.28.28-.57.41-.96.42-.72,0-1.4-.19-2.04-.49-2.01-.97-3.82-2.25-5.51-3.69-.44-.37-.8-.82-1.08-1.33-.58-1.05-.46-2.19.33-3.09.54-.61,1.18-1.11,1.8-1.63.3-.25.61-.49.81-.85-1.29.74-2.47,1.6-3.42,2.8-.41-.37-.69-.82-.94-1.29-.84-1.61-1.21-3.32-1.21-5.13,0-.27.11-.36.36-.4,2.47-.37,4.64-1.41,6.77-2.72,2.38-1.47,4.29-3.37,6.07-5.48.81-.97,1.64-1.94,2.53-2.83.92-.92,1.77-1.92,2.79-2.74,2.85-2.3,6.06-3.15,9.64-2.29,1.31.31,2.39,1.08,3.26,2.07,2.85,3.23,3.87,7.03,3.26,11.27-.26,1.82-1.05,3.48-2,5.03-1.67,2.74-3.08,5.57-3.59,8.77-.39,2.47-.32,4.92.44,7.32.17.53.16.53-.34.81-1.18.66-2.49.93-3.78,1.23-.19.04-.38.08-.62.14.34-1.3.52-2.57.25-3.91-.27.14-.2.32-.2.46-.01.86-.07,1.72-.26,2.57-.08.34-.2.65-.38.96-.39.64-.94.87-1.65.82-2.15-.17-4.22-.66-6.21-1.52-.92-.4-1.76-.91-2.54-1.52-.35-.28-.67-.59-.91-.96-.41-.66-.47-1.29-.15-1.95Z"/>
      </g>
      <g id="_Grid_Repeat_-11" data-name="&amp;lt;Grid Repeat&amp;gt;">
        <g>
          <path class="cls-2" d="m1.98,127.03c3.67-.92,6.98-.14,9.95,2.16.97.75,1.79,1.67,2.66,2.53,1.16,1.15,2.22,2.39,3.26,3.65,1.22,1.47,2.52,2.87,4.07,3.99.88.63,1.8,1.2,2.7,1.79.3.2.61.4.94.57,1.45.73,3,1.12,4.59,1.39.37.06.6.22.6.63.02,1.88-.28,3.7-1.17,5.38-.32.6-.68,1.18-1.31,1.54.62,1.61-.04,2.85-1.12,3.97-.22.23-.45.44-.69.64-1.3,1.01-2.61,1.99-4.06,2.79-1.38.76-2.78,1.38-4.45.84.27.56.28,1.09.13,1.62-.17.58-.52,1.05-.96,1.45-.91.82-1.93,1.45-3.06,1.94-1.9.82-3.89,1.26-5.94,1.5-.76.09-1.52.03-2.07-.58-.32-.35-.7-.39-1.1-.46-1.45-.23-2.87-.57-4.17-1.29-.62-.35-.7-.51-.5-1.2.3-1.03.53-2.08.62-3.15.33-4.23-.88-8.06-3.08-11.61-.52-.84-1-1.7-1.44-2.59-.68-1.39-1.22-2.84-1.33-4.4-.3-3.88.62-7.4,3.12-10.45.45-.55.94-1.05,1.55-1.47.72-.47,1.4-.97,2.23-1.18Zm15.62,32.02c-.48-.99-.99-1.96-1.65-2.84-.2-.27-.45-.51-.57-.89.24.07.37.23.51.37.8.79,1.42,1.74,2.22,2.54.28.28.57.41.96.42.72,0,1.4-.19,2.04-.49,2.01-.97,3.82-2.25,5.51-3.69.44-.37.8-.82,1.08-1.33.58-1.05.46-2.19-.33-3.09-.54-.61-1.18-1.11-1.8-1.63-.3-.25-.61-.49-.81-.85,1.29.74,2.47,1.6,3.42,2.8.41-.37.69-.82.94-1.29.84-1.61,1.21-3.32,1.21-5.13,0-.27-.11-.36-.36-.4-2.47-.37-4.64-1.41-6.77-2.72-2.38-1.47-4.29-3.37-6.07-5.48-.81-.97-1.64-1.94-2.53-2.83-.92-.92-1.77-1.92-2.79-2.74-2.85-2.3-6.06-3.15-9.64-2.29-1.31.31-2.39,1.08-3.26,2.07-2.85,3.23-3.87,7.03-3.26,11.27.26,1.82,1.05,3.48,2,5.03,1.67,2.74,3.08,5.57,3.59,8.77.39,2.47.32,4.92-.44,7.32-.17.53-.16.53.34.81,1.18.66,2.49.93,3.78,1.23.19.04.38.08.62.14-.34-1.3-.52-2.57-.25-3.91.27.14.2.32.2.46.01.86.07,1.72.26,2.57.08.34.2.65.38.96.39.64.94.87,1.65.82,2.15-.17,4.22-.66,6.21-1.52.92-.4,1.76-.91,2.54-1.52.35-.28.67-.59.91-.96.41-.66.47-1.29.15-1.95Z"/>
          <path class="cls-2" d="m7.78,144.74c.62-.18.97-.59,1.2-1.14.39-.94.37-1.91.21-2.89-.25-1.47-.79-2.81-1.86-3.89-.37-.38-.8-.68-1.34-.75-.84-.12-1.48.23-1.85,1-.44.92-.44,1.9-.3,2.88.21,1.38.7,2.65,1.61,3.72.59.69,1.31,1.2,2.33,1.07Z"/>
          <path class="cls-2" d="m-1.15,145.32c.36.42.74.77,1.24.98.84.34,1.6.07,2.01-.74.23-.45.33-.94.34-1.44.02-1.76-.51-3.34-1.64-4.71-.33-.4-.72-.71-1.19-.94-.88-.42-1.89.12-2.2.9-.44,1.07-.33,2.16-.03,3.23.28,1,.82,1.88,1.46,2.72Z"/>
        </g>
      </g>
      <g id="_Grid_Repeat_-12" data-name="&amp;lt;Grid Repeat&amp;gt;">
        <g>
          <path class="cls-2" d="m47.62,160.4c3.67-.92,6.98-.14,9.95,2.16.97.75,1.79,1.67,2.66,2.53,1.16,1.15,2.22,2.39,3.26,3.65,1.22,1.47,2.52,2.87,4.07,3.99.88.63,1.8,1.2,2.7,1.79.3.2.61.4.94.57,1.45.73,3,1.12,4.59,1.39.37.06.6.22.6.63.02,1.88-.28,3.7-1.17,5.38-.32.6-.68,1.18-1.31,1.54.62,1.61-.04,2.85-1.12,3.97-.22.23-.45.44-.69.64-1.3,1.01-2.61,1.99-4.06,2.79-1.38.76-2.78,1.38-4.45.84.27.56.28,1.09.13,1.62-.17.58-.52,1.05-.96,1.45-.91.82-1.93,1.45-3.06,1.94-1.9.82-3.89,1.26-5.94,1.5-.76.09-1.52.03-2.07-.58-.32-.35-.7-.39-1.1-.46-1.45-.23-2.87-.57-4.17-1.29-.62-.35-.7-.51-.5-1.2.3-1.03.53-2.08.62-3.15.33-4.23-.88-8.06-3.08-11.61-.52-.84-1-1.7-1.44-2.59-.68-1.39-1.22-2.84-1.33-4.4-.3-3.88.62-7.4,3.12-10.45.45-.55.94-1.05,1.55-1.47.72-.47,1.4-.97,2.23-1.18Zm15.62,32.02c-.48-.99-.99-1.96-1.65-2.84-.2-.27-.45-.51-.57-.89.24.07.37.23.51.37.8.79,1.42,1.74,2.22,2.54.28.28.57.41.96.42.72,0,1.4-.19,2.04-.49,2.01-.97,3.82-2.25,5.51-3.69.44-.37.8-.82,1.08-1.33.58-1.05.46-2.19-.33-3.09-.54-.61-1.18-1.11-1.8-1.63-.3-.25-.61-.49-.81-.85,1.29.74,2.47,1.6,3.42,2.8.41-.37.69-.82.94-1.29.84-1.61,1.21-3.32,1.21-5.13,0-.27-.11-.36-.36-.4-2.47-.37-4.64-1.41-6.77-2.72-2.38-1.47-4.29-3.37-6.07-5.48-.81-.97-1.64-1.94-2.53-2.83-.92-.92-1.77-1.92-2.79-2.74-2.85-2.3-6.06-3.15-9.64-2.29-1.31.31-2.39,1.08-3.26,2.07-2.85,3.23-3.87,7.03-3.26,11.27.26,1.82,1.05,3.48,2,5.03,1.67,2.74,3.08,5.57,3.59,8.77.39,2.47.32,4.92-.44,7.32-.17.53-.16.53.34.81,1.18.66,2.49.93,3.78,1.23.19.04.38.08.62.14-.34-1.3-.52-2.57-.25-3.91.27.14.2.32.2.46.01.86.07,1.72.26,2.57.08.34.2.65.38.96.39.64.94.87,1.65.82,2.15-.17,4.22-.66,6.21-1.52.92-.4,1.76-.91,2.54-1.52.35-.28.67-.59.91-.96.41-.66.47-1.29.15-1.95Z"/>
          <path class="cls-2" d="m53.42,178.11c.62-.18.97-.59,1.2-1.14.39-.94.37-1.91.21-2.89-.25-1.47-.79-2.81-1.86-3.89-.37-.38-.8-.68-1.34-.75-.84-.12-1.48.23-1.85,1-.44.92-.44,1.9-.3,2.88.21,1.38.7,2.65,1.61,3.72.59.69,1.31,1.2,2.33,1.07Z"/>
          <path class="cls-2" d="m44.49,178.69c.36.42.74.77,1.24.98.84.34,1.6.07,2.01-.74.23-.45.33-.94.34-1.44.02-1.76-.51-3.34-1.64-4.71-.33-.4-.72-.71-1.19-.94-.88-.42-1.89.12-2.2.9-.44,1.07-.33,2.16-.03,3.23.28,1,.82,1.88,1.46,2.72Z"/>
        </g>
      </g>
      <g id="_Grid_Repeat_-13" data-name="&amp;lt;Grid Repeat&amp;gt;">
        <g>
          <path class="cls-2" d="m93.26,127.03c3.67-.92,6.98-.14,9.95,2.16.97.75,1.79,1.67,2.66,2.53,1.16,1.15,2.22,2.39,3.26,3.65,1.22,1.47,2.52,2.87,4.07,3.99.88.63,1.8,1.2,2.7,1.79.3.2.61.4.94.57,1.45.73,3,1.12,4.59,1.39.37.06.6.22.6.63.02,1.88-.28,3.7-1.17,5.38-.32.6-.68,1.18-1.31,1.54.62,1.61-.04,2.85-1.12,3.97-.22.23-.45.44-.69.64-1.3,1.01-2.61,1.99-4.06,2.79-1.38.76-2.78,1.38-4.45.84.27.56.28,1.09.13,1.62-.17.58-.52,1.05-.96,1.45-.91.82-1.93,1.45-3.06,1.94-1.9.82-3.89,1.26-5.94,1.5-.76.09-1.52.03-2.07-.58-.32-.35-.7-.39-1.1-.46-1.45-.23-2.87-.57-4.17-1.29-.62-.35-.7-.51-.5-1.2.3-1.03.53-2.08.62-3.15.33-4.23-.88-8.06-3.08-11.61-.52-.84-1-1.7-1.44-2.59-.68-1.39-1.22-2.84-1.33-4.4-.3-3.88.62-7.4,3.12-10.45.45-.55.94-1.05,1.55-1.47.72-.47,1.4-.97,2.23-1.18Zm15.62,32.02c-.48-.99-.99-1.96-1.65-2.84-.2-.27-.45-.51-.57-.89.24.07.37.23.51.37.8.79,1.42,1.74,2.22,2.54.28.28.57.41.96.42.72,0,1.4-.19,2.04-.49,2.01-.97,3.82-2.25,5.51-3.69.44-.37.8-.82,1.08-1.33.58-1.05.46-2.19-.33-3.09-.54-.61-1.18-1.11-1.8-1.63-.3-.25-.61-.49-.81-.85,1.29.74,2.47,1.6,3.42,2.8.41-.37.69-.82.94-1.29.84-1.61,1.21-3.32,1.21-5.13,0-.27-.11-.36-.36-.4-2.47-.37-4.64-1.41-6.77-2.72-2.38-1.47-4.29-3.37-6.07-5.48-.81-.97-1.64-1.94-2.53-2.83-.92-.92-1.77-1.92-2.79-2.74-2.85-2.3-6.06-3.15-9.64-2.29-1.31.31-2.39,1.08-3.26,2.07-2.85,3.23-3.87,7.03-3.26,11.27.26,1.82,1.05,3.48,2,5.03,1.67,2.74,3.08,5.57,3.59,8.77.39,2.47.32,4.92-.44,7.32-.17.53-.16.53.34.81,1.18.66,2.49.93,3.78,1.23.19.04.38.08.62.14-.34-1.3-.52-2.57-.25-3.91.27.14.2.32.2.46.01.86.07,1.72.26,2.57.08.34.2.65.38.96.39.64.94.87,1.65.82,2.15-.17,4.22-.66,6.21-1.52.92-.4,1.76-.91,2.54-1.52.35-.28.67-.59.91-.96.41-.66.47-1.29.15-1.95Z"/>
          <path class="cls-2" d="m99.06,144.74c.62-.18.97-.59,1.2-1.14.39-.94.37-1.91.21-2.89-.25-1.47-.79-2.81-1.86-3.89-.37-.38-.8-.68-1.34-.75-.84-.12-1.48.23-1.85,1-.44.92-.44,1.9-.3,2.88.21,1.38.7,2.65,1.61,3.72.59.69,1.31,1.2,2.33,1.07Z"/>
          <path class="cls-2" d="m90.13,145.32c.36.42.74.77,1.24.98.84.34,1.6.07,2.01-.74.23-.45.33-.94.34-1.44.02-1.76-.51-3.34-1.64-4.71-.33-.4-.72-.71-1.19-.94-.88-.42-1.89.12-2.2.9-.44,1.07-.33,2.16-.03,3.23.28,1,.82,1.88,1.46,2.72Z"/>
        </g>
      </g>
      <g id="_Grid_Repeat_-14" data-name="&amp;lt;Grid Repeat&amp;gt;">
        <g>
          <path class="cls-2" d="m138.89,160.4c3.67-.92,6.98-.14,9.95,2.16.97.75,1.79,1.67,2.66,2.53,1.16,1.15,2.22,2.39,3.26,3.65,1.22,1.47,2.52,2.87,4.07,3.99.88.63,1.8,1.2,2.7,1.79.3.2.61.4.94.57,1.45.73,3,1.12,4.59,1.39.37.06.6.22.6.63.02,1.88-.28,3.7-1.17,5.38-.32.6-.68,1.18-1.31,1.54.62,1.61-.04,2.85-1.12,3.97-.22.23-.45.44-.69.64-1.3,1.01-2.61,1.99-4.06,2.79-1.38.76-2.78,1.38-4.45.84.27.56.28,1.09.13,1.62-.17.58-.52,1.05-.96,1.45-.91.82-1.93,1.45-3.06,1.94-1.9.82-3.89,1.26-5.94,1.5-.76.09-1.52.03-2.07-.58-.32-.35-.7-.39-1.1-.46-1.45-.23-2.87-.57-4.17-1.29-.62-.35-.7-.51-.5-1.2.3-1.03.53-2.08.62-3.15.33-4.23-.88-8.06-3.08-11.61-.52-.84-1-1.7-1.44-2.59-.68-1.39-1.22-2.84-1.33-4.4-.3-3.88.62-7.4,3.12-10.45.45-.55.94-1.05,1.55-1.47.72-.47,1.4-.97,2.23-1.18Zm15.62,32.02c-.48-.99-.99-1.96-1.65-2.84-.2-.27-.45-.51-.57-.89.24.07.37.23.51.37.8.79,1.42,1.74,2.22,2.54.28.28.57.41.96.42.72,0,1.4-.19,2.04-.49,2.01-.97,3.82-2.25,5.51-3.69.44-.37.8-.82,1.08-1.33.58-1.05.46-2.19-.33-3.09-.54-.61-1.18-1.11-1.8-1.63-.3-.25-.61-.49-.81-.85,1.29.74,2.47,1.6,3.42,2.8.41-.37.69-.82.94-1.29.84-1.61,1.21-3.32,1.21-5.13,0-.27-.11-.36-.36-.4-2.47-.37-4.64-1.41-6.77-2.72-2.38-1.47-4.29-3.37-6.07-5.48-.81-.97-1.64-1.94-2.53-2.83-.92-.92-1.77-1.92-2.79-2.74-2.85-2.3-6.06-3.15-9.64-2.29-1.31.31-2.39,1.08-3.26,2.07-2.85,3.23-3.87,7.03-3.26,11.27.26,1.82,1.05,3.48,2,5.03,1.67,2.74,3.08,5.57,3.59,8.77.39,2.47.32,4.92-.44,7.32-.17.53-.16.53.34.81,1.18.66,2.49.93,3.78,1.23.19.04.38.08.62.14-.34-1.3-.52-2.57-.25-3.91.27.14.2.32.2.46.01.86.07,1.72.26,2.57.08.34.2.65.38.96.39.64.94.87,1.65.82,2.15-.17,4.22-.66,6.21-1.52.92-.4,1.76-.91,2.54-1.52.35-.28.67-.59.91-.96.41-.66.47-1.29.15-1.95Z"/>
          <path class="cls-2" d="m144.69,178.11c.62-.18.97-.59,1.2-1.14.39-.94.37-1.91.21-2.89-.25-1.47-.79-2.81-1.86-3.89-.37-.38-.8-.68-1.34-.75-.84-.12-1.48.23-1.85,1-.44.92-.44,1.9-.3,2.88.21,1.38.7,2.65,1.61,3.72.59.69,1.31,1.2,2.33,1.07Z"/>
          <path class="cls-2" d="m135.76,178.69c.36.42.74.77,1.24.98.84.34,1.6.07,2.01-.74.23-.45.33-.94.34-1.44.02-1.76-.51-3.34-1.64-4.71-.33-.4-.72-.71-1.19-.94-.88-.42-1.89.12-2.2.9-.44,1.07-.33,2.16-.03,3.23.28,1,.82,1.88,1.46,2.72Z"/>
        </g>
      </g>
      <g id="_Grid_Repeat_-15" data-name="&amp;lt;Grid Repeat&amp;gt;">
        <g>
          <path class="cls-2" d="m184.53,127.03c3.67-.92,6.98-.14,9.95,2.16.97.75,1.79,1.67,2.66,2.53,1.16,1.15,2.22,2.39,3.26,3.65,1.22,1.47,2.52,2.87,4.07,3.99.88.63,1.8,1.2,2.7,1.79.3.2.61.4.94.57,1.45.73,3,1.12,4.59,1.39.37.06.6.22.6.63.02,1.88-.28,3.7-1.17,5.38-.32.6-.68,1.18-1.31,1.54.62,1.61-.04,2.85-1.12,3.97-.22.23-.45.44-.69.64-1.3,1.01-2.61,1.99-4.06,2.79-1.38.76-2.78,1.38-4.45.84.27.56.28,1.09.13,1.62-.17.58-.52,1.05-.96,1.45-.91.82-1.93,1.45-3.06,1.94-1.9.82-3.89,1.26-5.94,1.5-.76.09-1.52.03-2.07-.58-.32-.35-.7-.39-1.1-.46-1.45-.23-2.87-.57-4.17-1.29-.62-.35-.7-.51-.5-1.2.3-1.03.53-2.08.62-3.15.33-4.23-.88-8.06-3.08-11.61-.52-.84-1-1.7-1.44-2.59-.68-1.39-1.22-2.84-1.33-4.4-.3-3.88.62-7.4,3.12-10.45.45-.55.94-1.05,1.55-1.47.72-.47,1.4-.97,2.23-1.18Zm15.62,32.02c-.48-.99-.99-1.96-1.65-2.84-.2-.27-.45-.51-.57-.89.24.07.37.23.51.37.8.79,1.42,1.74,2.22,2.54.28.28.57.41.96.42.72,0,1.4-.19,2.04-.49,2.01-.97,3.82-2.25,5.51-3.69.44-.37.8-.82,1.08-1.33.58-1.05.46-2.19-.33-3.09-.54-.61-1.18-1.11-1.8-1.63-.3-.25-.61-.49-.81-.85,1.29.74,2.47,1.6,3.42,2.8.41-.37.69-.82.94-1.29.84-1.61,1.21-3.32,1.21-5.13,0-.27-.11-.36-.36-.4-2.47-.37-4.64-1.41-6.77-2.72-2.38-1.47-4.29-3.37-6.07-5.48-.81-.97-1.64-1.94-2.53-2.83-.92-.92-1.77-1.92-2.79-2.74-2.85-2.3-6.06-3.15-9.64-2.29-1.31.31-2.39,1.08-3.26,2.07-2.85,3.23-3.87,7.03-3.26,11.27.26,1.82,1.05,3.48,2,5.03,1.67,2.74,3.08,5.57,3.59,8.77.39,2.47.32,4.92-.44,7.32-.17.53-.16.53.34.81,1.18.66,2.49.93,3.78,1.23.19.04.38.08.62.14-.34-1.3-.52-2.57-.25-3.91.27.14.2.32.2.46.01.86.07,1.72.26,2.57.08.34.2.65.38.96.39.64.94.87,1.65.82,2.15-.17,4.22-.66,6.21-1.52.92-.4,1.76-.91,2.54-1.52.35-.28.67-.59.91-.96.41-.66.47-1.29.15-1.95Z"/>
          <path class="cls-2" d="m190.33,144.74c.62-.18.97-.59,1.2-1.14.39-.94.37-1.91.21-2.89-.25-1.47-.79-2.81-1.86-3.89-.37-.38-.8-.68-1.34-.75-.84-.12-1.48.23-1.85,1-.44.92-.44,1.9-.3,2.88.21,1.38.7,2.65,1.61,3.72.59.69,1.31,1.2,2.33,1.07Z"/>
          <path class="cls-2" d="m181.4,145.32c.36.42.74.77,1.24.98.84.34,1.6.07,2.01-.74.23-.45.33-.94.34-1.44.02-1.76-.51-3.34-1.64-4.71-.33-.4-.72-.71-1.19-.94-.88-.42-1.89.12-2.2.9-.44,1.07-.33,2.16-.03,3.23.28,1,.82,1.88,1.46,2.72Z"/>
        </g>
      </g>
      <g id="_Grid_Repeat_-16" data-name="&amp;lt;Grid Repeat&amp;gt;">
        <g>
          <path class="cls-2" d="m23.81,193.78c-3.67-.92-6.98-.14-9.95,2.16-.97.75-1.79,1.67-2.66,2.53-1.16,1.15-2.22,2.39-3.26,3.65-1.22,1.47-2.52,2.87-4.07,3.99-.88.63-1.8,1.2-2.7,1.79-.3.2-.61.4-.94.57-1.45.73-3,1.12-4.59,1.39-.37.06-.6.22-.6.63-.02,1.88.28,3.7,1.17,5.38.32.6.68,1.18,1.31,1.54-.62,1.61.04,2.85,1.12,3.97.22.23.45.44.69.64,1.3,1.01,2.61,1.99,4.06,2.79,1.38.76,2.78,1.38,4.45.84-.27.56-.28,1.09-.13,1.62.17.58.52,1.05.96,1.45.91.82,1.93,1.45,3.06,1.94,1.9.82,3.89,1.26,5.94,1.5.76.09,1.52.03,2.07-.58.32-.35.7-.39,1.1-.46,1.45-.23,2.87-.57,4.17-1.29.62-.35.7-.51.5-1.2-.3-1.03-.53-2.08-.62-3.15-.33-4.23.88-8.06,3.08-11.61.52-.84,1-1.7,1.44-2.59.68-1.39,1.22-2.84,1.33-4.4.3-3.88-.62-7.4-3.12-10.45-.45-.55-.94-1.05-1.55-1.47-.72-.47-1.4-.97-2.23-1.18Zm-15.62,32.02c.48-.99.99-1.96,1.65-2.84.2-.27.45-.51.57-.89-.24.07-.37.23-.51.37-.8.79-1.42,1.74-2.22,2.54-.28.28-.57.41-.96.42-.72,0-1.4-.19-2.04-.49-2.01-.97-3.82-2.25-5.51-3.69-.44-.37-.8-.82-1.08-1.33-.58-1.05-.46-2.19.33-3.09.54-.61,1.18-1.11,1.8-1.63.3-.25.61-.49.81-.85-1.29.74-2.47,1.6-3.42,2.8-.41-.37-.69-.82-.94-1.29-.84-1.61-1.21-3.32-1.21-5.13,0-.27.11-.36.36-.4,2.47-.37,4.64-1.41,6.77-2.72,2.38-1.47,4.29-3.37,6.07-5.48.81-.97,1.64-1.94,2.53-2.83.92-.92,1.77-1.92,2.79-2.74,2.85-2.3,6.06-3.15,9.64-2.29,1.31.31,2.39,1.08,3.26,2.07,2.85,3.23,3.87,7.03,3.26,11.27-.26,1.82-1.05,3.48-2,5.03-1.67,2.74-3.08,5.57-3.59,8.77-.39,2.47-.32,4.92.44,7.32.17.53.16.53-.34.81-1.18.66-2.49.93-3.78,1.23-.19.04-.38.08-.62.14.34-1.3.52-2.57.25-3.91-.27.14-.2.32-.2.46-.01.86-.07,1.72-.26,2.57-.08.34-.2.65-.38.96-.39.64-.94.87-1.65.82-2.15-.17-4.22-.66-6.21-1.52-.92-.4-1.76-.91-2.54-1.52-.35-.28-.67-.59-.91-.96-.41-.66-.47-1.29-.15-1.95Z"/>
          <path class="cls-2" d="m18.01,211.49c-.62-.18-.97-.59-1.2-1.14-.39-.94-.37-1.91-.21-2.89.25-1.47.79-2.81,1.86-3.89.37-.38.8-.68,1.34-.75.84-.12,1.48.23,1.85,1,.44.92.44,1.9.3,2.88-.21,1.38-.7,2.65-1.61,3.72-.59.69-1.31,1.2-2.33,1.07Z"/>
          <path class="cls-2" d="m26.94,212.07c-.36.42-.74.77-1.24.98-.84.34-1.6.07-2.01-.74-.23-.45-.33-.94-.34-1.44-.02-1.76.51-3.34,1.64-4.71.33-.4.72-.71,1.19-.94.88-.42,1.89.12,2.2.9.44,1.07.33,2.16.03,3.23-.28,1-.82,1.88-1.46,2.72Z"/>
        </g>
      </g>
      <g id="_Grid_Repeat_-17" data-name="&amp;lt;Grid Repeat&amp;gt;">
        <g>
          <path class="cls-2" d="m69.45,227.15c-3.67-.92-6.98-.14-9.95,2.16-.97.75-1.79,1.67-2.66,2.53-1.16,1.15-2.22,2.39-3.26,3.65-1.22,1.47-2.52,2.87-4.07,3.99-.88.63-1.8,1.2-2.7,1.79-.3.2-.61.4-.94.57-1.45.73-3,1.12-4.59,1.39-.37.06-.6.22-.6.63-.02,1.88.28,3.7,1.17,5.38.32.6.68,1.18,1.31,1.54-.62,1.61.04,2.85,1.12,3.97.22.23.45.44.69.64,1.3,1.01,2.61,1.99,4.06,2.79,1.38.76,2.78,1.38,4.45.84-.27.56-.28,1.09-.13,1.62.17.58.52,1.05.96,1.45.91.82,1.93,1.45,3.06,1.94,1.9.82,3.89,1.26,5.94,1.5.76.09,1.52.03,2.07-.58.32-.35.7-.39,1.1-.46,1.45-.23,2.87-.57,4.17-1.29.62-.35.7-.51.5-1.2-.3-1.03-.53-2.08-.62-3.15-.33-4.23.88-8.06,3.08-11.61.52-.84,1-1.7,1.44-2.59.68-1.39,1.22-2.84,1.33-4.4.3-3.88-.62-7.4-3.12-10.45-.45-.55-.94-1.05-1.55-1.47-.72-.47-1.4-.97-2.23-1.18Zm-15.62,32.02c.48-.99.99-1.96,1.65-2.84.2-.27.45-.51.57-.89-.24.07-.37.23-.51.37-.8.79-1.42,1.74-2.22,2.54-.28.28-.57.41-.96.42-.72,0-1.4-.19-2.04-.49-2.01-.97-3.82-2.25-5.51-3.69-.44-.37-.8-.82-1.08-1.33-.58-1.05-.46-2.19.33-3.09.54-.61,1.18-1.11,1.8-1.63.3-.25.61-.49.81-.85-1.29.74-2.47,1.6-3.42,2.8-.41-.37-.69-.82-.94-1.29-.84-1.61-1.21-3.32-1.21-5.13,0-.27.11-.36.36-.4,2.47-.37,4.64-1.41,6.77-2.72,2.38-1.47,4.29-3.37,6.07-5.48.81-.97,1.64-1.94,2.53-2.83.92-.92,1.77-1.92,2.79-2.74,2.85-2.3,6.06-3.15,9.64-2.29,1.31.31,2.39,1.08,3.26,2.07,2.85,3.23,3.87,7.03,3.26,11.27-.26,1.82-1.05,3.48-2,5.03-1.67,2.74-3.08,5.57-3.59,8.77-.39,2.47-.32,4.92.44,7.32.17.53.16.53-.34.81-1.18.66-2.49.93-3.78,1.23-.19.04-.38.08-.62.14.34-1.3.52-2.57.25-3.91-.27.14-.2.32-.2.46-.01.86-.07,1.72-.26,2.57-.08.34-.2.65-.38.96-.39.64-.94.87-1.65.82-2.15-.17-4.22-.66-6.21-1.52-.92-.4-1.76-.91-2.54-1.52-.35-.28-.67-.59-.91-.96-.41-.66-.47-1.29-.15-1.95Z"/>
          <path class="cls-2" d="m63.65,244.86c-.62-.18-.97-.59-1.2-1.14-.39-.94-.37-1.91-.21-2.89.25-1.47.79-2.81,1.86-3.89.37-.38.8-.68,1.34-.75.84-.12,1.48.23,1.85,1,.44.92.44,1.9.3,2.88-.21,1.38-.7,2.65-1.61,3.72-.59.69-1.31,1.2-2.33,1.07Z"/>
          <path class="cls-2" d="m72.58,245.44c-.36.42-.74.77-1.24.98-.84.34-1.6.07-2.01-.74-.23-.45-.33-.94-.34-1.44-.02-1.76.51-3.34,1.64-4.71.33-.4.72-.71,1.19-.94.88-.42,1.89.12,2.2.9.44,1.07.33,2.16.03,3.23-.28,1-.82,1.88-1.46,2.72Z"/>
        </g>
      </g>
      <g id="_Grid_Repeat_-18" data-name="&amp;lt;Grid Repeat&amp;gt;">
        <g>
          <path class="cls-2" d="m115.09,193.78c-3.67-.92-6.98-.14-9.95,2.16-.97.75-1.79,1.67-2.66,2.53-1.16,1.15-2.22,2.39-3.26,3.65-1.22,1.47-2.52,2.87-4.07,3.99-.88.63-1.8,1.2-2.7,1.79-.3.2-.61.4-.94.57-1.45.73-3,1.12-4.59,1.39-.37.06-.6.22-.6.63-.02,1.88.28,3.7,1.17,5.38.32.6.68,1.18,1.31,1.54-.62,1.61.04,2.85,1.12,3.97.22.23.45.44.69.64,1.3,1.01,2.61,1.99,4.06,2.79,1.38.76,2.78,1.38,4.45.84-.27.56-.28,1.09-.13,1.62.17.58.52,1.05.96,1.45.91.82,1.93,1.45,3.06,1.94,1.9.82,3.89,1.26,5.94,1.5.76.09,1.52.03,2.07-.58.32-.35.7-.39,1.1-.46,1.45-.23,2.87-.57,4.17-1.29.62-.35.7-.51.5-1.2-.3-1.03-.53-2.08-.62-3.15-.33-4.23.88-8.06,3.08-11.61.52-.84,1-1.7,1.44-2.59.68-1.39,1.22-2.84,1.33-4.4.3-3.88-.62-7.4-3.12-10.45-.45-.55-.94-1.05-1.55-1.47-.72-.47-1.4-.97-2.23-1.18Zm-15.62,32.02c.48-.99.99-1.96,1.65-2.84.2-.27.45-.51.57-.89-.24.07-.37.23-.51.37-.8.79-1.42,1.74-2.22,2.54-.28.28-.57.41-.96.42-.72,0-1.4-.19-2.04-.49-2.01-.97-3.82-2.25-5.51-3.69-.44-.37-.8-.82-1.08-1.33-.58-1.05-.46-2.19.33-3.09.54-.61,1.18-1.11,1.8-1.63.3-.25.61-.49.81-.85-1.29.74-2.47,1.6-3.42,2.8-.41-.37-.69-.82-.94-1.29-.84-1.61-1.21-3.32-1.21-5.13,0-.27.11-.36.36-.4,2.47-.37,4.64-1.41,6.77-2.72,2.38-1.47,4.29-3.37,6.07-5.48.81-.97,1.64-1.94,2.53-2.83.92-.92,1.77-1.92,2.79-2.74,2.85-2.3,6.06-3.15,9.64-2.29,1.31.31,2.39,1.08,3.26,2.07,2.85,3.23,3.87,7.03,3.26,11.27-.26,1.82-1.05,3.48-2,5.03-1.67,2.74-3.08,5.57-3.59,8.77-.39,2.47-.32,4.92.44,7.32.17.53.16.53-.34.81-1.18.66-2.49.93-3.78,1.23-.19.04-.38.08-.62.14.34-1.3.52-2.57.25-3.91-.27.14-.2.32-.2.46-.01.86-.07,1.72-.26,2.57-.08.34-.2.65-.38.96-.39.64-.94.87-1.65.82-2.15-.17-4.22-.66-6.21-1.52-.92-.4-1.76-.91-2.54-1.52-.35-.28-.67-.59-.91-.96-.41-.66-.47-1.29-.15-1.95Z"/>
          <path class="cls-2" d="m109.29,211.49c-.62-.18-.97-.59-1.2-1.14-.39-.94-.37-1.91-.21-2.89.25-1.47.79-2.81,1.86-3.89.37-.38.8-.68,1.34-.75.84-.12,1.48.23,1.85,1,.44.92.44,1.9.3,2.88-.21,1.38-.7,2.65-1.61,3.72-.59.69-1.31,1.2-2.33,1.07Z"/>
          <path class="cls-2" d="m118.22,212.07c-.36.42-.74.77-1.24.98-.84.34-1.6.07-2.01-.74-.23-.45-.33-.94-.34-1.44-.02-1.76.51-3.34,1.64-4.71.33-.4.72-.71,1.19-.94.88-.42,1.89.12,2.2.9.44,1.07.33,2.16.03,3.23-.28,1-.82,1.88-1.46,2.72Z"/>
        </g>
      </g>
      <g id="_Grid_Repeat_-19" data-name="&amp;lt;Grid Repeat&amp;gt;">
        <g>
          <path class="cls-2" d="m160.73,227.15c-3.67-.92-6.98-.14-9.95,2.16-.97.75-1.79,1.67-2.66,2.53-1.16,1.15-2.22,2.39-3.26,3.65-1.22,1.47-2.52,2.87-4.07,3.99-.88.63-1.8,1.2-2.7,1.79-.3.2-.61.4-.94.57-1.45.73-3,1.12-4.59,1.39-.37.06-.6.22-.6.63-.02,1.88.28,3.7,1.17,5.38.32.6.68,1.18,1.31,1.54-.62,1.61.04,2.85,1.12,3.97.22.23.45.44.69.64,1.3,1.01,2.61,1.99,4.06,2.79,1.38.76,2.78,1.38,4.45.84-.27.56-.28,1.09-.13,1.62.17.58.52,1.05.96,1.45.91.82,1.93,1.45,3.06,1.94,1.9.82,3.89,1.26,5.94,1.5.76.09,1.52.03,2.07-.58.32-.35.7-.39,1.1-.46,1.45-.23,2.87-.57,4.17-1.29.62-.35.7-.51.5-1.2-.3-1.03-.53-2.08-.62-3.15-.33-4.23.88-8.06,3.08-11.61.52-.84,1-1.7,1.44-2.59.68-1.39,1.22-2.84,1.33-4.4.3-3.88-.62-7.4-3.12-10.45-.45-.55-.94-1.05-1.55-1.47-.72-.47-1.4-.97-2.23-1.18Zm-15.62,32.02c.48-.99.99-1.96,1.65-2.84.2-.27.45-.51.57-.89-.24.07-.37.23-.51.37-.8.79-1.42,1.74-2.22,2.54-.28.28-.57.41-.96.42-.72,0-1.4-.19-2.04-.49-2.01-.97-3.82-2.25-5.51-3.69-.44-.37-.8-.82-1.08-1.33-.58-1.05-.46-2.19.33-3.09.54-.61,1.18-1.11,1.8-1.63.3-.25.61-.49.81-.85-1.29.74-2.47,1.6-3.42,2.8-.41-.37-.69-.82-.94-1.29-.84-1.61-1.21-3.32-1.21-5.13,0-.27.11-.36.36-.4,2.47-.37,4.64-1.41,6.77-2.72,2.38-1.47,4.29-3.37,6.07-5.48.81-.97,1.64-1.94,2.53-2.83.92-.92,1.77-1.92,2.79-2.74,2.85-2.3,6.06-3.15,9.64-2.29,1.31.31,2.39,1.08,3.26,2.07,2.85,3.23,3.87,7.03,3.26,11.27-.26,1.82-1.05,3.48-2,5.03-1.67,2.74-3.08,5.57-3.59,8.77-.39,2.47-.32,4.92.44,7.32.17.53.16.53-.34.81-1.18.66-2.49.93-3.78,1.23-.19.04-.38.08-.62.14.34-1.3.52-2.57.25-3.91-.27.14-.2.32-.2.46-.01.86-.07,1.72-.26,2.57-.08.34-.2.65-.38.96-.39.64-.94.87-1.65.82-2.15-.17-4.22-.66-6.21-1.52-.92-.4-1.76-.91-2.54-1.52-.35-.28-.67-.59-.91-.96-.41-.66-.47-1.29-.15-1.95Z"/>
          <path class="cls-2" d="m154.92,244.86c-.62-.18-.97-.59-1.2-1.14-.39-.94-.37-1.91-.21-2.89.25-1.47.79-2.81,1.86-3.89.37-.38.8-.68,1.34-.75.84-.12,1.48.23,1.85,1,.44.92.44,1.9.3,2.88-.21,1.38-.7,2.65-1.61,3.72-.59.69-1.31,1.2-2.33,1.07Z"/>
          <path class="cls-2" d="m163.85,245.44c-.36.42-.74.77-1.24.98-.84.34-1.6.07-2.01-.74-.23-.45-.33-.94-.34-1.44-.02-1.76.51-3.34,1.64-4.71.33-.4.72-.71,1.19-.94.88-.42,1.89.12,2.2.9.44,1.07.33,2.16.03,3.23-.28,1-.82,1.88-1.46,2.72Z"/>
        </g>
      </g>
      <g id="_Grid_Repeat_-20" data-name="&amp;lt;Grid Repeat&amp;gt;">
        <path class="cls-2" d="m206.36,193.78c-3.67-.92-6.98-.14-9.95,2.16-.97.75-1.79,1.67-2.66,2.53-1.16,1.15-2.22,2.39-3.26,3.65-1.22,1.47-2.52,2.87-4.07,3.99-.88.63-1.8,1.2-2.7,1.79-.3.2-.61.4-.94.57-1.45.73-3,1.12-4.59,1.39-.37.06-.6.22-.6.63-.02,1.88.28,3.7,1.17,5.38.32.6.68,1.18,1.31,1.54-.62,1.61.04,2.85,1.12,3.97.22.23.45.44.69.64,1.3,1.01,2.61,1.99,4.06,2.79,1.38.76,2.78,1.38,4.45.84-.27.56-.28,1.09-.13,1.62.17.58.52,1.05.96,1.45.91.82,1.93,1.45,3.06,1.94,1.9.82,3.89,1.26,5.94,1.5.76.09,1.52.03,2.07-.58.32-.35.7-.39,1.1-.46,1.45-.23,2.87-.57,4.17-1.29.62-.35.7-.51.5-1.2-.3-1.03-.53-2.08-.62-3.15-.33-4.23.88-8.06,3.08-11.61.52-.84,1-1.7,1.44-2.59.68-1.39,1.22-2.84,1.33-4.4.3-3.88-.62-7.4-3.12-10.45-.45-.55-.94-1.05-1.55-1.47-.72-.47-1.4-.97-2.23-1.18Zm-15.62,32.02c.48-.99.99-1.96,1.65-2.84.2-.27.45-.51.57-.89-.24.07-.37.23-.51.37-.8.79-1.42,1.74-2.22,2.54-.28.28-.57.41-.96.42-.72,0-1.4-.19-2.04-.49-2.01-.97-3.82-2.25-5.51-3.69-.44-.37-.8-.82-1.08-1.33-.58-1.05-.46-2.19.33-3.09.54-.61,1.18-1.11,1.8-1.63.3-.25.61-.49.81-.85-1.29.74-2.47,1.6-3.42,2.8-.41-.37-.69-.82-.94-1.29-.84-1.61-1.21-3.32-1.21-5.13,0-.27.11-.36.36-.4,2.47-.37,4.64-1.41,6.77-2.72,2.38-1.47,4.29-3.37,6.07-5.48.81-.97,1.64-1.94,2.53-2.83.92-.92,1.77-1.92,2.79-2.74,2.85-2.3,6.06-3.15,9.64-2.29,1.31.31,2.39,1.08,3.26,2.07,2.85,3.23,3.87,7.03,3.26,11.27-.26,1.82-1.05,3.48-2,5.03-1.67,2.74-3.08,5.57-3.59,8.77-.39,2.47-.32,4.92.44,7.32.17.53.16.53-.34.81-1.18.66-2.49.93-3.78,1.23-.19.04-.38.08-.62.14.34-1.3.52-2.57.25-3.91-.27.14-.2.32-.2.46-.01.86-.07,1.72-.26,2.57-.08.34-.2.65-.38.96-.39.64-.94.87-1.65.82-2.15-.17-4.22-.66-6.21-1.52-.92-.4-1.76-.91-2.54-1.52-.35-.28-.67-.59-.91-.96-.41-.66-.47-1.29-.15-1.95Z"/>
      </g>
      <g id="_Grid_Repeat_-21" data-name="&amp;lt;Grid Repeat&amp;gt;">
        <g>
          <path class="cls-2" d="m1.98,260.52c3.67-.92,6.98-.14,9.95,2.16.97.75,1.79,1.67,2.66,2.53,1.16,1.15,2.22,2.39,3.26,3.65,1.22,1.47,2.52,2.87,4.07,3.99.88.63,1.8,1.2,2.7,1.79.3.2.61.4.94.57,1.45.73,3,1.12,4.59,1.39.37.06.6.22.6.63.02,1.88-.28,3.7-1.17,5.38-.32.6-.68,1.18-1.31,1.54.62,1.61-.04,2.85-1.12,3.97-.22.23-.45.44-.69.64-1.3,1.01-2.61,1.99-4.06,2.79-1.38.76-2.78,1.38-4.45.84.27.56.28,1.09.13,1.62-.17.58-.52,1.05-.96,1.45-.91.82-1.93,1.45-3.06,1.94-1.9.82-3.89,1.26-5.94,1.5-.76.09-1.52.03-2.07-.58-.32-.35-.7-.39-1.1-.46-1.45-.23-2.87-.57-4.17-1.29-.62-.35-.7-.51-.5-1.2.3-1.03.53-2.08.62-3.15.33-4.23-.88-8.06-3.08-11.61-.52-.84-1-1.7-1.44-2.59-.68-1.39-1.22-2.84-1.33-4.4-.3-3.88.62-7.4,3.12-10.45.45-.55.94-1.05,1.55-1.47.72-.47,1.4-.97,2.23-1.18Zm15.62,32.02c-.48-.99-.99-1.96-1.65-2.84-.2-.27-.45-.51-.57-.89.24.07.37.23.51.37.8.79,1.42,1.74,2.22,2.54.28.28.57.41.96.42.72,0,1.4-.19,2.04-.49,2.01-.97,3.82-2.25,5.51-3.69.44-.37.8-.82,1.08-1.33.58-1.05.46-2.19-.33-3.09-.54-.61-1.18-1.11-1.8-1.63-.3-.25-.61-.49-.81-.85,1.29.74,2.47,1.6,3.42,2.8.41-.37.69-.82.94-1.29.84-1.61,1.21-3.32,1.21-5.13,0-.27-.11-.36-.36-.4-2.47-.37-4.64-1.41-6.77-2.72-2.38-1.47-4.29-3.37-6.07-5.48-.81-.97-1.64-1.94-2.53-2.83-.92-.92-1.77-1.92-2.79-2.74-2.85-2.3-6.06-3.15-9.64-2.29-1.31.31-2.39,1.08-3.26,2.07-2.85,3.23-3.87,7.03-3.26,11.27.26,1.82,1.05,3.48,2,5.03,1.67,2.74,3.08,5.57,3.59,8.77.39,2.47.32,4.92-.44,7.32-.17.53-.16.53.34.81,1.18.66,2.49.93,3.78,1.23.19.04.38.08.62.14-.34-1.3-.52-2.57-.25-3.91.27.14.2.32.2.46.01.86.07,1.72.26,2.57.08.34.2.65.38.96.39.64.94.87,1.65.82,2.15-.17,4.22-.66,6.21-1.52.92-.4,1.76-.91,2.54-1.52.35-.28.67-.59.91-.96.41-.66.47-1.29.15-1.95Z"/>
          <path class="cls-2" d="m7.78,278.23c.62-.18.97-.59,1.2-1.14.39-.94.37-1.91.21-2.89-.25-1.47-.79-2.81-1.86-3.89-.37-.38-.8-.68-1.34-.75-.84-.12-1.48.23-1.85,1-.44.92-.44,1.9-.3,2.88.21,1.38.7,2.65,1.61,3.72.59.69,1.31,1.2,2.33,1.07Z"/>
          <path class="cls-2" d="m-1.15,278.81c.36.42.74.77,1.24.98.84.34,1.6.07,2.01-.74.23-.45.33-.94.34-1.44.02-1.76-.51-3.34-1.64-4.71-.33-.4-.72-.71-1.19-.94-.88-.42-1.89.12-2.2.9-.44,1.07-.33,2.16-.03,3.23.28,1,.82,1.88,1.46,2.72Z"/>
        </g>
      </g>
      <g id="_Grid_Repeat_-22" data-name="&amp;lt;Grid Repeat&amp;gt;">
        <g>
          <path class="cls-2" d="m47.62,293.9c3.67-.92,6.98-.14,9.95,2.16.97.75,1.79,1.67,2.66,2.53,1.16,1.15,2.22,2.39,3.26,3.65,1.22,1.47,2.52,2.87,4.07,3.99.88.63,1.8,1.2,2.7,1.79.3.2.61.4.94.57,1.45.73,3,1.12,4.59,1.39.37.06.6.22.6.63.02,1.88-.28,3.7-1.17,5.38-.32.6-.68,1.18-1.31,1.54.62,1.61-.04,2.85-1.12,3.97-.22.23-.45.44-.69.64-1.3,1.01-2.61,1.99-4.06,2.79-1.38.76-2.78,1.38-4.45.84.27.56.28,1.09.13,1.62-.17.58-.52,1.05-.96,1.45-.91.82-1.93,1.45-3.06,1.94-1.9.82-3.89,1.26-5.94,1.5-.76.09-1.52.03-2.07-.58-.32-.35-.7-.39-1.1-.46-1.45-.23-2.87-.57-4.17-1.29-.62-.35-.7-.51-.5-1.2.3-1.03.53-2.08.62-3.15.33-4.23-.88-8.06-3.08-11.61-.52-.84-1-1.7-1.44-2.59-.68-1.39-1.22-2.84-1.33-4.4-.3-3.88.62-7.4,3.12-10.45.45-.55.94-1.05,1.55-1.47.72-.47,1.4-.97,2.23-1.18Zm15.62,32.02c-.48-.99-.99-1.96-1.65-2.84-.2-.27-.45-.51-.57-.89.24.07.37.23.51.37.8.79,1.42,1.74,2.22,2.54.28.28.57.41.96.42.72,0,1.4-.19,2.04-.49,2.01-.97,3.82-2.25,5.51-3.69.44-.37.8-.82,1.08-1.33.58-1.05.46-2.19-.33-3.09-.54-.61-1.18-1.11-1.8-1.63-.3-.25-.61-.49-.81-.85,1.29.74,2.47,1.6,3.42,2.8.41-.37.69-.82.94-1.29.84-1.61,1.21-3.32,1.21-5.13,0-.27-.11-.36-.36-.4-2.47-.37-4.64-1.41-6.77-2.72-2.38-1.47-4.29-3.37-6.07-5.48-.81-.97-1.64-1.94-2.53-2.83-.92-.92-1.77-1.92-2.79-2.74-2.85-2.3-6.06-3.15-9.64-2.29-1.31.31-2.39,1.08-3.26,2.07-2.85,3.23-3.87,7.03-3.26,11.27.26,1.82,1.05,3.48,2,5.03,1.67,2.74,3.08,5.57,3.59,8.77.39,2.47.32,4.92-.44,7.32-.17.53-.16.53.34.81,1.18.66,2.49.93,3.78,1.23.19.04.38.08.62.14-.34-1.3-.52-2.57-.25-3.91.27.14.2.32.2.46.01.86.07,1.72.26,2.57.08.34.2.65.38.96.39.64.94.87,1.65.82,2.15-.17,4.22-.66,6.21-1.52.92-.4,1.76-.91,2.54-1.52.35-.28.67-.59.91-.96.41-.66.47-1.29.15-1.95Z"/>
          <path class="cls-2" d="m53.42,311.61c.62-.18.97-.59,1.2-1.14.39-.94.37-1.91.21-2.89-.25-1.47-.79-2.81-1.86-3.89-.37-.38-.8-.68-1.34-.75-.84-.12-1.48.23-1.85,1-.44.92-.44,1.9-.3,2.88.21,1.38.7,2.65,1.61,3.72.59.69,1.31,1.2,2.33,1.07Z"/>
          <path class="cls-2" d="m44.49,312.19c.36.42.74.77,1.24.98.84.34,1.6.07,2.01-.74.23-.45.33-.94.34-1.44.02-1.76-.51-3.34-1.64-4.71-.33-.4-.72-.71-1.19-.94-.88-.42-1.89.12-2.2.9-.44,1.07-.33,2.16-.03,3.23.28,1,.82,1.88,1.46,2.72Z"/>
        </g>
      </g>
      <g id="_Grid_Repeat_-23" data-name="&amp;lt;Grid Repeat&amp;gt;">
        <g>
          <path class="cls-2" d="m93.26,260.52c3.67-.92,6.98-.14,9.95,2.16.97.75,1.79,1.67,2.66,2.53,1.16,1.15,2.22,2.39,3.26,3.65,1.22,1.47,2.52,2.87,4.07,3.99.88.63,1.8,1.2,2.7,1.79.3.2.61.4.94.57,1.45.73,3,1.12,4.59,1.39.37.06.6.22.6.63.02,1.88-.28,3.7-1.17,5.38-.32.6-.68,1.18-1.31,1.54.62,1.61-.04,2.85-1.12,3.97-.22.23-.45.44-.69.64-1.3,1.01-2.61,1.99-4.06,2.79-1.38.76-2.78,1.38-4.45.84.27.56.28,1.09.13,1.62-.17.58-.52,1.05-.96,1.45-.91.82-1.93,1.45-3.06,1.94-1.9.82-3.89,1.26-5.94,1.5-.76.09-1.52.03-2.07-.58-.32-.35-.7-.39-1.1-.46-1.45-.23-2.87-.57-4.17-1.29-.62-.35-.7-.51-.5-1.2.3-1.03.53-2.08.62-3.15.33-4.23-.88-8.06-3.08-11.61-.52-.84-1-1.7-1.44-2.59-.68-1.39-1.22-2.84-1.33-4.4-.3-3.88.62-7.4,3.12-10.45.45-.55.94-1.05,1.55-1.47.72-.47,1.4-.97,2.23-1.18Zm15.62,32.02c-.48-.99-.99-1.96-1.65-2.84-.2-.27-.45-.51-.57-.89.24.07.37.23.51.37.8.79,1.42,1.74,2.22,2.54.28.28.57.41.96.42.72,0,1.4-.19,2.04-.49,2.01-.97,3.82-2.25,5.51-3.69.44-.37.8-.82,1.08-1.33.58-1.05.46-2.19-.33-3.09-.54-.61-1.18-1.11-1.8-1.63-.3-.25-.61-.49-.81-.85,1.29.74,2.47,1.6,3.42,2.8.41-.37.69-.82.94-1.29.84-1.61,1.21-3.32,1.21-5.13,0-.27-.11-.36-.36-.4-2.47-.37-4.64-1.41-6.77-2.72-2.38-1.47-4.29-3.37-6.07-5.48-.81-.97-1.64-1.94-2.53-2.83-.92-.92-1.77-1.92-2.79-2.74-2.85-2.3-6.06-3.15-9.64-2.29-1.31.31-2.39,1.08-3.26,2.07-2.85,3.23-3.87,7.03-3.26,11.27.26,1.82,1.05,3.48,2,5.03,1.67,2.74,3.08,5.57,3.59,8.77.39,2.47.32,4.92-.44,7.32-.17.53-.16.53.34.81,1.18.66,2.49.93,3.78,1.23.19.04.38.08.62.14-.34-1.3-.52-2.57-.25-3.91.27.14.2.32.2.46.01.86.07,1.72.26,2.57.08.34.2.65.38.96.39.64.94.87,1.65.82,2.15-.17,4.22-.66,6.21-1.52.92-.4,1.76-.91,2.54-1.52.35-.28.67-.59.91-.96.41-.66.47-1.29.15-1.95Z"/>
          <path class="cls-2" d="m99.06,278.23c.62-.18.97-.59,1.2-1.14.39-.94.37-1.91.21-2.89-.25-1.47-.79-2.81-1.86-3.89-.37-.38-.8-.68-1.34-.75-.84-.12-1.48.23-1.85,1-.44.92-.44,1.9-.3,2.88.21,1.38.7,2.65,1.61,3.72.59.69,1.31,1.2,2.33,1.07Z"/>
          <path class="cls-2" d="m90.13,278.81c.36.42.74.77,1.24.98.84.34,1.6.07,2.01-.74.23-.45.33-.94.34-1.44.02-1.76-.51-3.34-1.64-4.71-.33-.4-.72-.71-1.19-.94-.88-.42-1.89.12-2.2.9-.44,1.07-.33,2.16-.03,3.23.28,1,.82,1.88,1.46,2.72Z"/>
        </g>
      </g>
      <g id="_Grid_Repeat_-24" data-name="&amp;lt;Grid Repeat&amp;gt;">
        <g>
          <path class="cls-2" d="m138.89,293.9c3.67-.92,6.98-.14,9.95,2.16.97.75,1.79,1.67,2.66,2.53,1.16,1.15,2.22,2.39,3.26,3.65,1.22,1.47,2.52,2.87,4.07,3.99.88.63,1.8,1.2,2.7,1.79.3.2.61.4.94.57,1.45.73,3,1.12,4.59,1.39.37.06.6.22.6.63.02,1.88-.28,3.7-1.17,5.38-.32.6-.68,1.18-1.31,1.54.62,1.61-.04,2.85-1.12,3.97-.22.23-.45.44-.69.64-1.3,1.01-2.61,1.99-4.06,2.79-1.38.76-2.78,1.38-4.45.84.27.56.28,1.09.13,1.62-.17.58-.52,1.05-.96,1.45-.91.82-1.93,1.45-3.06,1.94-1.9.82-3.89,1.26-5.94,1.5-.76.09-1.52.03-2.07-.58-.32-.35-.7-.39-1.1-.46-1.45-.23-2.87-.57-4.17-1.29-.62-.35-.7-.51-.5-1.2.3-1.03.53-2.08.62-3.15.33-4.23-.88-8.06-3.08-11.61-.52-.84-1-1.7-1.44-2.59-.68-1.39-1.22-2.84-1.33-4.4-.3-3.88.62-7.4,3.12-10.45.45-.55.94-1.05,1.55-1.47.72-.47,1.4-.97,2.23-1.18Zm15.62,32.02c-.48-.99-.99-1.96-1.65-2.84-.2-.27-.45-.51-.57-.89.24.07.37.23.51.37.8.79,1.42,1.74,2.22,2.54.28.28.57.41.96.42.72,0,1.4-.19,2.04-.49,2.01-.97,3.82-2.25,5.51-3.69.44-.37.8-.82,1.08-1.33.58-1.05.46-2.19-.33-3.09-.54-.61-1.18-1.11-1.8-1.63-.3-.25-.61-.49-.81-.85,1.29.74,2.47,1.6,3.42,2.8.41-.37.69-.82.94-1.29.84-1.61,1.21-3.32,1.21-5.13,0-.27-.11-.36-.36-.4-2.47-.37-4.64-1.41-6.77-2.72-2.38-1.47-4.29-3.37-6.07-5.48-.81-.97-1.64-1.94-2.53-2.83-.92-.92-1.77-1.92-2.79-2.74-2.85-2.3-6.06-3.15-9.64-2.29-1.31.31-2.39,1.08-3.26,2.07-2.85,3.23-3.87,7.03-3.26,11.27.26,1.82,1.05,3.48,2,5.03,1.67,2.74,3.08,5.57,3.59,8.77.39,2.47.32,4.92-.44,7.32-.17.53-.16.53.34.81,1.18.66,2.49.93,3.78,1.23.19.04.38.08.62.14-.34-1.3-.52-2.57-.25-3.91.27.14.2.32.2.46.01.86.07,1.72.26,2.57.08.34.2.65.38.96.39.64.94.87,1.65.82,2.15-.17,4.22-.66,6.21-1.52.92-.4,1.76-.91,2.54-1.52.35-.28.67-.59.91-.96.41-.66.47-1.29.15-1.95Z"/>
          <path class="cls-2" d="m144.69,311.61c.62-.18.97-.59,1.2-1.14.39-.94.37-1.91.21-2.89-.25-1.47-.79-2.81-1.86-3.89-.37-.38-.8-.68-1.34-.75-.84-.12-1.48.23-1.85,1-.44.92-.44,1.9-.3,2.88.21,1.38.7,2.65,1.61,3.72.59.69,1.31,1.2,2.33,1.07Z"/>
          <path class="cls-2" d="m135.76,312.19c.36.42.74.77,1.24.98.84.34,1.6.07,2.01-.74.23-.45.33-.94.34-1.44.02-1.76-.51-3.34-1.64-4.71-.33-.4-.72-.71-1.19-.94-.88-.42-1.89.12-2.2.9-.44,1.07-.33,2.16-.03,3.23.28,1,.82,1.88,1.46,2.72Z"/>
        </g>
      </g>
      <g id="_Grid_Repeat_-25" data-name="&amp;lt;Grid Repeat&amp;gt;">
        <g>
          <path class="cls-2" d="m184.53,260.52c3.67-.92,6.98-.14,9.95,2.16.97.75,1.79,1.67,2.66,2.53,1.16,1.15,2.22,2.39,3.26,3.65,1.22,1.47,2.52,2.87,4.07,3.99.88.63,1.8,1.2,2.7,1.79.3.2.61.4.94.57,1.45.73,3,1.12,4.59,1.39.37.06.6.22.6.63.02,1.88-.28,3.7-1.17,5.38-.32.6-.68,1.18-1.31,1.54.62,1.61-.04,2.85-1.12,3.97-.22.23-.45.44-.69.64-1.3,1.01-2.61,1.99-4.06,2.79-1.38.76-2.78,1.38-4.45.84.27.56.28,1.09.13,1.62-.17.58-.52,1.05-.96,1.45-.91.82-1.93,1.45-3.06,1.94-1.9.82-3.89,1.26-5.94,1.5-.76.09-1.52.03-2.07-.58-.32-.35-.7-.39-1.1-.46-1.45-.23-2.87-.57-4.17-1.29-.62-.35-.7-.51-.5-1.2.3-1.03.53-2.08.62-3.15.33-4.23-.88-8.06-3.08-11.61-.52-.84-1-1.7-1.44-2.59-.68-1.39-1.22-2.84-1.33-4.4-.3-3.88.62-7.4,3.12-10.45.45-.55.94-1.05,1.55-1.47.72-.47,1.4-.97,2.23-1.18Zm15.62,32.02c-.48-.99-.99-1.96-1.65-2.84-.2-.27-.45-.51-.57-.89.24.07.37.23.51.37.8.79,1.42,1.74,2.22,2.54.28.28.57.41.96.42.72,0,1.4-.19,2.04-.49,2.01-.97,3.82-2.25,5.51-3.69.44-.37.8-.82,1.08-1.33.58-1.05.46-2.19-.33-3.09-.54-.61-1.18-1.11-1.8-1.63-.3-.25-.61-.49-.81-.85,1.29.74,2.47,1.6,3.42,2.8.41-.37.69-.82.94-1.29.84-1.61,1.21-3.32,1.21-5.13,0-.27-.11-.36-.36-.4-2.47-.37-4.64-1.41-6.77-2.72-2.38-1.47-4.29-3.37-6.07-5.48-.81-.97-1.64-1.94-2.53-2.83-.92-.92-1.77-1.92-2.79-2.74-2.85-2.3-6.06-3.15-9.64-2.29-1.31.31-2.39,1.08-3.26,2.07-2.85,3.23-3.87,7.03-3.26,11.27.26,1.82,1.05,3.48,2,5.03,1.67,2.74,3.08,5.57,3.59,8.77.39,2.47.32,4.92-.44,7.32-.17.53-.16.53.34.81,1.18.66,2.49.93,3.78,1.23.19.04.38.08.62.14-.34-1.3-.52-2.57-.25-3.91.27.14.2.32.2.46.01.86.07,1.72.26,2.57.08.34.2.65.38.96.39.64.94.87,1.65.82,2.15-.17,4.22-.66,6.21-1.52.92-.4,1.76-.91,2.54-1.52.35-.28.67-.59.91-.96.41-.66.47-1.29.15-1.95Z"/>
          <path class="cls-2" d="m190.33,278.23c.62-.18.97-.59,1.2-1.14.39-.94.37-1.91.21-2.89-.25-1.47-.79-2.81-1.86-3.89-.37-.38-.8-.68-1.34-.75-.84-.12-1.48.23-1.85,1-.44.92-.44,1.9-.3,2.88.21,1.38.7,2.65,1.61,3.72.59.69,1.31,1.2,2.33,1.07Z"/>
          <path class="cls-2" d="m181.4,278.81c.36.42.74.77,1.24.98.84.34,1.6.07,2.01-.74.23-.45.33-.94.34-1.44.02-1.76-.51-3.34-1.64-4.71-.33-.4-.72-.71-1.19-.94-.88-.42-1.89.12-2.2.9-.44,1.07-.33,2.16-.03,3.23.28,1,.82,1.88,1.46,2.72Z"/>
        </g>
      </g>
      <g id="_Grid_Repeat_-26" data-name="&amp;lt;Grid Repeat&amp;gt;">
        <g>
          <path class="cls-2" d="m23.81,327.27c-3.67-.92-6.98-.14-9.95,2.16-.97.75-1.79,1.67-2.66,2.53-1.16,1.15-2.22,2.39-3.26,3.65-1.22,1.47-2.52,2.87-4.07,3.99-.88.63-1.8,1.2-2.7,1.79-.3.2-.61.4-.94.57-1.45.73-3,1.12-4.59,1.39-.37.06-.6.22-.6.63-.02,1.88.28,3.7,1.17,5.38.32.6.68,1.18,1.31,1.54-.62,1.61.04,2.85,1.12,3.97.22.23.45.44.69.64,1.3,1.01,2.61,1.99,4.06,2.79,1.38.76,2.78,1.38,4.45.84-.27.56-.28,1.09-.13,1.62.17.58.52,1.05.96,1.45.91.82,1.93,1.45,3.06,1.94,1.9.82,3.89,1.26,5.94,1.5.76.09,1.52.03,2.07-.58.32-.35.7-.39,1.1-.46,1.45-.23,2.87-.57,4.17-1.29.62-.35.7-.51.5-1.2-.3-1.03-.53-2.08-.62-3.15-.33-4.23.88-8.06,3.08-11.61.52-.84,1-1.7,1.44-2.59.68-1.39,1.22-2.84,1.33-4.4.3-3.88-.62-7.4-3.12-10.45-.45-.55-.94-1.05-1.55-1.47-.72-.47-1.4-.97-2.23-1.18Zm-15.62,32.02c.48-.99.99-1.96,1.65-2.84.2-.27.45-.51.57-.89-.24.07-.37.23-.51.37-.8.79-1.42,1.74-2.22,2.54-.28.28-.57.41-.96.42-.72,0-1.4-.19-2.04-.49-2.01-.97-3.82-2.25-5.51-3.69-.44-.37-.8-.82-1.08-1.33-.58-1.05-.46-2.19.33-3.09.54-.61,1.18-1.11,1.8-1.63.3-.25.61-.49.81-.85-1.29.74-2.47,1.6-3.42,2.8-.41-.37-.69-.82-.94-1.29-.84-1.61-1.21-3.32-1.21-5.13,0-.27.11-.36.36-.4,2.47-.37,4.64-1.41,6.77-2.72,2.38-1.47,4.29-3.37,6.07-5.48.81-.97,1.64-1.94,2.53-2.83.92-.92,1.77-1.92,2.79-2.74,2.85-2.3,6.06-3.15,9.64-2.29,1.31.31,2.39,1.08,3.26,2.07,2.85,3.23,3.87,7.03,3.26,11.27-.26,1.82-1.05,3.48-2,5.03-1.67,2.74-3.08,5.57-3.59,8.77-.39,2.47-.32,4.92.44,7.32.17.53.16.53-.34.81-1.18.66-2.49.93-3.78,1.23-.19.04-.38.08-.62.14.34-1.3.52-2.57.25-3.91-.27.14-.2.32-.2.46-.01.86-.07,1.72-.26,2.57-.08.34-.2.65-.38.96-.39.64-.94.87-1.65.82-2.15-.17-4.22-.66-6.21-1.52-.92-.4-1.76-.91-2.54-1.52-.35-.28-.67-.59-.91-.96-.41-.66-.47-1.29-.15-1.95Z"/>
          <path class="cls-2" d="m18.01,344.98c-.62-.18-.97-.59-1.2-1.14-.39-.94-.37-1.91-.21-2.89.25-1.47.79-2.81,1.86-3.89.37-.38.8-.68,1.34-.75.84-.12,1.48.23,1.85,1,.44.92.44,1.9.3,2.88-.21,1.38-.7,2.65-1.61,3.72-.59.69-1.31,1.2-2.33,1.07Z"/>
          <path class="cls-2" d="m26.94,345.56c-.36.42-.74.77-1.24.98-.84.34-1.6.07-2.01-.74-.23-.45-.33-.94-.34-1.44-.02-1.76.51-3.34,1.64-4.71.33-.4.72-.71,1.19-.94.88-.42,1.89.12,2.2.9.44,1.07.33,2.16.03,3.23-.28,1-.82,1.88-1.46,2.72Z"/>
        </g>
      </g>
      <g id="_Grid_Repeat_-27" data-name="&amp;lt;Grid Repeat&amp;gt;">
        <g>
          <path class="cls-2" d="m115.09,327.27c-3.67-.92-6.98-.14-9.95,2.16-.97.75-1.79,1.67-2.66,2.53-1.16,1.15-2.22,2.39-3.26,3.65-1.22,1.47-2.52,2.87-4.07,3.99-.88.63-1.8,1.2-2.7,1.79-.3.2-.61.4-.94.57-1.45.73-3,1.12-4.59,1.39-.37.06-.6.22-.6.63-.02,1.88.28,3.7,1.17,5.38.32.6.68,1.18,1.31,1.54-.62,1.61.04,2.85,1.12,3.97.22.23.45.44.69.64,1.3,1.01,2.61,1.99,4.06,2.79,1.38.76,2.78,1.38,4.45.84-.27.56-.28,1.09-.13,1.62.17.58.52,1.05.96,1.45.91.82,1.93,1.45,3.06,1.94,1.9.82,3.89,1.26,5.94,1.5.76.09,1.52.03,2.07-.58.32-.35.7-.39,1.1-.46,1.45-.23,2.87-.57,4.17-1.29.62-.35.7-.51.5-1.2-.3-1.03-.53-2.08-.62-3.15-.33-4.23.88-8.06,3.08-11.61.52-.84,1-1.7,1.44-2.59.68-1.39,1.22-2.84,1.33-4.4.3-3.88-.62-7.4-3.12-10.45-.45-.55-.94-1.05-1.55-1.47-.72-.47-1.4-.97-2.23-1.18Zm-15.62,32.02c.48-.99.99-1.96,1.65-2.84.2-.27.45-.51.57-.89-.24.07-.37.23-.51.37-.8.79-1.42,1.74-2.22,2.54-.28.28-.57.41-.96.42-.72,0-1.4-.19-2.04-.49-2.01-.97-3.82-2.25-5.51-3.69-.44-.37-.8-.82-1.08-1.33-.58-1.05-.46-2.19.33-3.09.54-.61,1.18-1.11,1.8-1.63.3-.25.61-.49.81-.85-1.29.74-2.47,1.6-3.42,2.8-.41-.37-.69-.82-.94-1.29-.84-1.61-1.21-3.32-1.21-5.13,0-.27.11-.36.36-.4,2.47-.37,4.64-1.41,6.77-2.72,2.38-1.47,4.29-3.37,6.07-5.48.81-.97,1.64-1.94,2.53-2.83.92-.92,1.77-1.92,2.79-2.74,2.85-2.3,6.06-3.15,9.64-2.29,1.31.31,2.39,1.08,3.26,2.07,2.85,3.23,3.87,7.03,3.26,11.27-.26,1.82-1.05,3.48-2,5.03-1.67,2.74-3.08,5.57-3.59,8.77-.39,2.47-.32,4.92.44,7.32.17.53.16.53-.34.81-1.18.66-2.49.93-3.78,1.23-.19.04-.38.08-.62.14.34-1.3.52-2.57.25-3.91-.27.14-.2.32-.2.46-.01.86-.07,1.72-.26,2.57-.08.34-.2.65-.38.96-.39.64-.94.87-1.65.82-2.15-.17-4.22-.66-6.21-1.52-.92-.4-1.76-.91-2.54-1.52-.35-.28-.67-.59-.91-.96-.41-.66-.47-1.29-.15-1.95Z"/>
          <path class="cls-2" d="m109.29,344.98c-.62-.18-.97-.59-1.2-1.14-.39-.94-.37-1.91-.21-2.89.25-1.47.79-2.81,1.86-3.89.37-.38.8-.68,1.34-.75.84-.12,1.48.23,1.85,1,.44.92.44,1.9.3,2.88-.21,1.38-.7,2.65-1.61,3.72-.59.69-1.31,1.2-2.33,1.07Z"/>
          <path class="cls-2" d="m118.22,345.56c-.36.42-.74.77-1.24.98-.84.34-1.6.07-2.01-.74-.23-.45-.33-.94-.34-1.44-.02-1.76.51-3.34,1.64-4.71.33-.4.72-.71,1.19-.94.88-.42,1.89.12,2.2.9.44,1.07.33,2.16.03,3.23-.28,1-.82,1.88-1.46,2.72Z"/>
        </g>
      </g>
      <g id="_Grid_Repeat_-28" data-name="&amp;lt;Grid Repeat&amp;gt;">
        <path class="cls-2" d="m206.36,327.27c-3.67-.92-6.98-.14-9.95,2.16-.97.75-1.79,1.67-2.66,2.53-1.16,1.15-2.22,2.39-3.26,3.65-1.22,1.47-2.52,2.87-4.07,3.99-.88.63-1.8,1.2-2.7,1.79-.3.2-.61.4-.94.57-1.45.73-3,1.12-4.59,1.39-.37.06-.6.22-.6.63-.02,1.88.28,3.7,1.17,5.38.32.6.68,1.18,1.31,1.54-.62,1.61.04,2.85,1.12,3.97.22.23.45.44.69.64,1.3,1.01,2.61,1.99,4.06,2.79,1.38.76,2.78,1.38,4.45.84-.27.56-.28,1.09-.13,1.62.17.58.52,1.05.96,1.45.91.82,1.93,1.45,3.06,1.94,1.9.82,3.89,1.26,5.94,1.5.76.09,1.52.03,2.07-.58.32-.35.7-.39,1.1-.46,1.45-.23,2.87-.57,4.17-1.29.62-.35.7-.51.5-1.2-.3-1.03-.53-2.08-.62-3.15-.33-4.23.88-8.06,3.08-11.61.52-.84,1-1.7,1.44-2.59.68-1.39,1.22-2.84,1.33-4.4.3-3.88-.62-7.4-3.12-10.45-.45-.55-.94-1.05-1.55-1.47-.72-.47-1.4-.97-2.23-1.18Zm-15.62,32.02c.48-.99.99-1.96,1.65-2.84.2-.27.45-.51.57-.89-.24.07-.37.23-.51.37-.8.79-1.42,1.74-2.22,2.54-.28.28-.57.41-.96.42-.72,0-1.4-.19-2.04-.49-2.01-.97-3.82-2.25-5.51-3.69-.44-.37-.8-.82-1.08-1.33-.58-1.05-.46-2.19.33-3.09.54-.61,1.18-1.11,1.8-1.63.3-.25.61-.49.81-.85-1.29.74-2.47,1.6-3.42,2.8-.41-.37-.69-.82-.94-1.29-.84-1.61-1.21-3.32-1.21-5.13,0-.27.11-.36.36-.4,2.47-.37,4.64-1.41,6.77-2.72,2.38-1.47,4.29-3.37,6.07-5.48.81-.97,1.64-1.94,2.53-2.83.92-.92,1.77-1.92,2.79-2.74,2.85-2.3,6.06-3.15,9.64-2.29,1.31.31,2.39,1.08,3.26,2.07,2.85,3.23,3.87,7.03,3.26,11.27-.26,1.82-1.05,3.48-2,5.03-1.67,2.74-3.08,5.57-3.59,8.77-.39,2.47-.32,4.92.44,7.32.17.53.16.53-.34.81-1.18.66-2.49.93-3.78,1.23-.19.04-.38.08-.62.14.34-1.3.52-2.57.25-3.91-.27.14-.2.32-.2.46-.01.86-.07,1.72-.26,2.57-.08.34-.2.65-.38.96-.39.64-.94.87-1.65.82-2.15-.17-4.22-.66-6.21-1.52-.92-.4-1.76-.91-2.54-1.52-.35-.28-.67-.59-.91-.96-.41-.66-.47-1.29-.15-1.95Z"/>
      </g>
    </g>
  </g>
</svg>